<mxfile host="app.diagrams.net" agent="Mozilla/5.0 (Windows NT 10.0; Win64; x64) AppleWebKit/537.36 (KHTML, like Gecko) Chrome/136.0.0.0 Safari/537.36" version="27.1.1" pages="2">
  <diagram name="페이지-1" id="ROTZIbvm8rrGKER9gvJ6">
    <mxGraphModel dx="1667" dy="586" grid="1" gridSize="10" guides="1" tooltips="1" connect="1" arrows="1" fold="1" page="1" pageScale="1" pageWidth="827" pageHeight="1169" math="0" shadow="0">
      <root>
        <mxCell id="0" />
        <mxCell id="1" parent="0" />
        <mxCell id="WIp5kh_jE5t20tD7Ffrp-1" value="유저" style="whiteSpace=wrap;html=1;align=center;" vertex="1" parent="1">
          <mxGeometry x="1162.7999877929688" y="993" width="100" height="40" as="geometry" />
        </mxCell>
        <mxCell id="WIp5kh_jE5t20tD7Ffrp-2" style="edgeStyle=none;rounded=0;orthogonalLoop=1;jettySize=auto;html=1;entryX=1;entryY=0.5;entryDx=0;entryDy=0;" edge="1" parent="1" source="WIp5kh_jE5t20tD7Ffrp-3" target="WIp5kh_jE5t20tD7Ffrp-11">
          <mxGeometry relative="1" as="geometry" />
        </mxCell>
        <mxCell id="WIp5kh_jE5t20tD7Ffrp-3" value="상품" style="whiteSpace=wrap;html=1;align=center;" vertex="1" parent="1">
          <mxGeometry x="1959.7999877929688" y="993" width="100" height="40" as="geometry" />
        </mxCell>
        <mxCell id="WIp5kh_jE5t20tD7Ffrp-4" style="edgeStyle=none;rounded=0;orthogonalLoop=1;jettySize=auto;html=1;entryX=0.5;entryY=1;entryDx=0;entryDy=0;" edge="1" parent="1" source="WIp5kh_jE5t20tD7Ffrp-6" target="WIp5kh_jE5t20tD7Ffrp-15">
          <mxGeometry relative="1" as="geometry" />
        </mxCell>
        <mxCell id="WIp5kh_jE5t20tD7Ffrp-5" style="edgeStyle=none;rounded=0;orthogonalLoop=1;jettySize=auto;html=1;entryX=0;entryY=0.5;entryDx=0;entryDy=0;exitX=1;exitY=0.5;exitDx=0;exitDy=0;" edge="1" parent="1" source="WIp5kh_jE5t20tD7Ffrp-6" target="WIp5kh_jE5t20tD7Ffrp-59">
          <mxGeometry relative="1" as="geometry" />
        </mxCell>
        <mxCell id="WIp5kh_jE5t20tD7Ffrp-6" value="댓글" style="whiteSpace=wrap;html=1;align=center;" vertex="1" parent="1">
          <mxGeometry x="1594.7999877929688" y="1453" width="100" height="40" as="geometry" />
        </mxCell>
        <mxCell id="WIp5kh_jE5t20tD7Ffrp-7" style="edgeStyle=none;rounded=0;orthogonalLoop=1;jettySize=auto;html=1;entryX=0;entryY=0.5;entryDx=0;entryDy=0;" edge="1" parent="1" source="WIp5kh_jE5t20tD7Ffrp-9" target="WIp5kh_jE5t20tD7Ffrp-62">
          <mxGeometry relative="1" as="geometry" />
        </mxCell>
        <mxCell id="WIp5kh_jE5t20tD7Ffrp-8" style="edgeStyle=none;rounded=0;orthogonalLoop=1;jettySize=auto;html=1;entryX=0.5;entryY=1;entryDx=0;entryDy=0;exitX=1;exitY=0;exitDx=0;exitDy=0;" edge="1" parent="1" source="WIp5kh_jE5t20tD7Ffrp-9" target="WIp5kh_jE5t20tD7Ffrp-13">
          <mxGeometry relative="1" as="geometry" />
        </mxCell>
        <mxCell id="WIp5kh_jE5t20tD7Ffrp-9" value="대댓글" style="whiteSpace=wrap;html=1;align=center;" vertex="1" parent="1">
          <mxGeometry x="918.7999877929688" y="1453" width="100" height="40" as="geometry" />
        </mxCell>
        <mxCell id="WIp5kh_jE5t20tD7Ffrp-10" style="edgeStyle=none;rounded=0;orthogonalLoop=1;jettySize=auto;html=1;entryX=1;entryY=0.5;entryDx=0;entryDy=0;" edge="1" parent="1" source="WIp5kh_jE5t20tD7Ffrp-11" target="WIp5kh_jE5t20tD7Ffrp-1">
          <mxGeometry relative="1" as="geometry" />
        </mxCell>
        <mxCell id="WIp5kh_jE5t20tD7Ffrp-11" value="해금" style="shape=rhombus;perimeter=rhombusPerimeter;whiteSpace=wrap;html=1;align=center;" vertex="1" parent="1">
          <mxGeometry x="1498.7999877929688" y="983" width="120" height="60" as="geometry" />
        </mxCell>
        <mxCell id="WIp5kh_jE5t20tD7Ffrp-12" style="edgeStyle=none;rounded=0;orthogonalLoop=1;jettySize=auto;html=1;entryX=0;entryY=1;entryDx=0;entryDy=0;exitX=0.5;exitY=0;exitDx=0;exitDy=0;" edge="1" parent="1" source="WIp5kh_jE5t20tD7Ffrp-13" target="WIp5kh_jE5t20tD7Ffrp-1">
          <mxGeometry relative="1" as="geometry" />
        </mxCell>
        <mxCell id="WIp5kh_jE5t20tD7Ffrp-13" value="작성" style="shape=rhombus;perimeter=rhombusPerimeter;whiteSpace=wrap;html=1;align=center;" vertex="1" parent="1">
          <mxGeometry x="993.7999877929688" y="1268" width="120" height="60" as="geometry" />
        </mxCell>
        <mxCell id="WIp5kh_jE5t20tD7Ffrp-14" style="edgeStyle=none;rounded=0;orthogonalLoop=1;jettySize=auto;html=1;entryX=1;entryY=1;entryDx=0;entryDy=0;exitX=0.5;exitY=0;exitDx=0;exitDy=0;" edge="1" parent="1" source="WIp5kh_jE5t20tD7Ffrp-15" target="WIp5kh_jE5t20tD7Ffrp-1">
          <mxGeometry relative="1" as="geometry" />
        </mxCell>
        <mxCell id="WIp5kh_jE5t20tD7Ffrp-15" value="작성" style="shape=rhombus;perimeter=rhombusPerimeter;whiteSpace=wrap;html=1;align=center;" vertex="1" parent="1">
          <mxGeometry x="1443.7999877929688" y="1263" width="120" height="60" as="geometry" />
        </mxCell>
        <mxCell id="WIp5kh_jE5t20tD7Ffrp-19" value="콘텐츠종류" style="ellipse;whiteSpace=wrap;html=1;align=center;" vertex="1" parent="1">
          <mxGeometry x="1518.7999877929688" y="687" width="100" height="40" as="geometry" />
        </mxCell>
        <mxCell id="WIp5kh_jE5t20tD7Ffrp-20" value="마일리지" style="ellipse;whiteSpace=wrap;html=1;align=center;" vertex="1" parent="1">
          <mxGeometry x="993.7999877929688" y="1078" width="100" height="40" as="geometry" />
        </mxCell>
        <mxCell id="WIp5kh_jE5t20tD7Ffrp-21" value="이메일" style="ellipse;whiteSpace=wrap;html=1;align=center;" vertex="1" parent="1">
          <mxGeometry x="993.7999877929688" y="998" width="100" height="40" as="geometry" />
        </mxCell>
        <mxCell id="WIp5kh_jE5t20tD7Ffrp-22" value="회원명" style="ellipse;whiteSpace=wrap;html=1;align=center;" vertex="1" parent="1">
          <mxGeometry x="993.7999877929688" y="958" width="100" height="40" as="geometry" />
        </mxCell>
        <mxCell id="WIp5kh_jE5t20tD7Ffrp-24" value="뱃지" style="ellipse;whiteSpace=wrap;html=1;align=center;" vertex="1" parent="1">
          <mxGeometry x="1999.7999877929688" y="938" width="100" height="40" as="geometry" />
        </mxCell>
        <mxCell id="WIp5kh_jE5t20tD7Ffrp-27" value="내용" style="ellipse;whiteSpace=wrap;html=1;align=center;" vertex="1" parent="1">
          <mxGeometry x="788.7999877929688" y="1463" width="100" height="40" as="geometry" />
        </mxCell>
        <mxCell id="WIp5kh_jE5t20tD7Ffrp-28" value="작성자" style="ellipse;whiteSpace=wrap;html=1;align=center;" vertex="1" parent="1">
          <mxGeometry x="788.7999877929688" y="1543" width="100" height="40" as="geometry" />
        </mxCell>
        <mxCell id="WIp5kh_jE5t20tD7Ffrp-29" value="작성일" style="ellipse;whiteSpace=wrap;html=1;align=center;" vertex="1" parent="1">
          <mxGeometry x="788.7999877929688" y="1503" width="100" height="40" as="geometry" />
        </mxCell>
        <mxCell id="WIp5kh_jE5t20tD7Ffrp-30" value="추천수" style="ellipse;whiteSpace=wrap;html=1;align=center;" vertex="1" parent="1">
          <mxGeometry x="888.7999877929688" y="1543" width="100" height="40" as="geometry" />
        </mxCell>
        <mxCell id="WIp5kh_jE5t20tD7Ffrp-31" value="작성자" style="ellipse;whiteSpace=wrap;html=1;align=center;" vertex="1" parent="1">
          <mxGeometry x="1458.7999877929688" y="1533" width="100" height="40" as="geometry" />
        </mxCell>
        <mxCell id="WIp5kh_jE5t20tD7Ffrp-32" value="내용" style="ellipse;whiteSpace=wrap;html=1;align=center;" vertex="1" parent="1">
          <mxGeometry x="1548.7999877929688" y="1533" width="100" height="40" as="geometry" />
        </mxCell>
        <mxCell id="WIp5kh_jE5t20tD7Ffrp-33" value="작성날짜" style="ellipse;whiteSpace=wrap;html=1;align=center;" vertex="1" parent="1">
          <mxGeometry x="1378.7999877929688" y="1533" width="100" height="40" as="geometry" />
        </mxCell>
        <mxCell id="WIp5kh_jE5t20tD7Ffrp-42" value="1" style="text;html=1;align=center;verticalAlign=middle;whiteSpace=wrap;rounded=0;" vertex="1" parent="1">
          <mxGeometry x="1013.7999877929688" y="1238" width="60" height="30" as="geometry" />
        </mxCell>
        <mxCell id="WIp5kh_jE5t20tD7Ffrp-43" value="N" style="text;html=1;align=center;verticalAlign=middle;whiteSpace=wrap;rounded=0;" vertex="1" parent="1">
          <mxGeometry x="1003.7999877929688" y="1323" width="60" height="30" as="geometry" />
        </mxCell>
        <mxCell id="WIp5kh_jE5t20tD7Ffrp-44" value="1" style="text;html=1;align=center;verticalAlign=middle;whiteSpace=wrap;rounded=0;" vertex="1" parent="1">
          <mxGeometry x="1483.7999877929688" y="1238" width="60" height="30" as="geometry" />
        </mxCell>
        <mxCell id="WIp5kh_jE5t20tD7Ffrp-45" value="N" style="text;html=1;align=center;verticalAlign=middle;whiteSpace=wrap;rounded=0;" vertex="1" parent="1">
          <mxGeometry x="1498.7999877929688" y="1313" width="60" height="30" as="geometry" />
        </mxCell>
        <mxCell id="WIp5kh_jE5t20tD7Ffrp-46" value="1" style="text;html=1;align=center;verticalAlign=middle;whiteSpace=wrap;rounded=0;" vertex="1" parent="1">
          <mxGeometry x="1219.7999877929688" y="833" width="60" height="30" as="geometry" />
        </mxCell>
        <mxCell id="WIp5kh_jE5t20tD7Ffrp-48" style="edgeStyle=orthogonalEdgeStyle;rounded=0;orthogonalLoop=1;jettySize=auto;html=1;entryX=0.5;entryY=1;entryDx=0;entryDy=0;fillColor=#f8cecc;strokeColor=#b85450;" edge="1" parent="1" source="WIp5kh_jE5t20tD7Ffrp-50" target="WIp5kh_jE5t20tD7Ffrp-101">
          <mxGeometry relative="1" as="geometry" />
        </mxCell>
        <mxCell id="WIp5kh_jE5t20tD7Ffrp-49" style="edgeStyle=orthogonalEdgeStyle;rounded=0;orthogonalLoop=1;jettySize=auto;html=1;entryX=1;entryY=0.5;entryDx=0;entryDy=0;fillColor=#dae8fc;strokeColor=#6c8ebf;" edge="1" parent="1" source="WIp5kh_jE5t20tD7Ffrp-50" target="WIp5kh_jE5t20tD7Ffrp-52">
          <mxGeometry relative="1" as="geometry" />
        </mxCell>
        <mxCell id="WIp5kh_jE5t20tD7Ffrp-50" value="영화" style="whiteSpace=wrap;html=1;align=center;" vertex="1" parent="1">
          <mxGeometry x="2079.7999877929688" y="1158" width="100" height="40" as="geometry" />
        </mxCell>
        <mxCell id="WIp5kh_jE5t20tD7Ffrp-51" style="edgeStyle=orthogonalEdgeStyle;rounded=0;orthogonalLoop=1;jettySize=auto;html=1;entryX=0.5;entryY=1;entryDx=0;entryDy=0;fillColor=#f8cecc;strokeColor=#b85450;" edge="1" parent="1" source="WIp5kh_jE5t20tD7Ffrp-52" target="WIp5kh_jE5t20tD7Ffrp-101">
          <mxGeometry relative="1" as="geometry">
            <Array as="points">
              <mxPoint x="1899.7999877929688" y="1063" />
              <mxPoint x="2129.7999877929688" y="1063" />
            </Array>
          </mxGeometry>
        </mxCell>
        <mxCell id="WIp5kh_jE5t20tD7Ffrp-52" value="게임" style="whiteSpace=wrap;html=1;align=center;" vertex="1" parent="1">
          <mxGeometry x="1849.7999877929688" y="1158" width="100" height="40" as="geometry" />
        </mxCell>
        <mxCell id="WIp5kh_jE5t20tD7Ffrp-53" style="edgeStyle=orthogonalEdgeStyle;rounded=0;orthogonalLoop=1;jettySize=auto;html=1;entryX=0.5;entryY=1;entryDx=0;entryDy=0;fillColor=#f8cecc;strokeColor=#b85450;" edge="1" parent="1" source="WIp5kh_jE5t20tD7Ffrp-55" target="WIp5kh_jE5t20tD7Ffrp-101">
          <mxGeometry relative="1" as="geometry">
            <Array as="points">
              <mxPoint x="2340.7999877929688" y="1063" />
              <mxPoint x="2129.7999877929688" y="1063" />
            </Array>
          </mxGeometry>
        </mxCell>
        <mxCell id="WIp5kh_jE5t20tD7Ffrp-54" style="edgeStyle=orthogonalEdgeStyle;rounded=0;orthogonalLoop=1;jettySize=auto;html=1;entryX=1;entryY=0.5;entryDx=0;entryDy=0;fillColor=#dae8fc;strokeColor=#6c8ebf;" edge="1" parent="1" source="WIp5kh_jE5t20tD7Ffrp-55" target="WIp5kh_jE5t20tD7Ffrp-50">
          <mxGeometry relative="1" as="geometry" />
        </mxCell>
        <mxCell id="WIp5kh_jE5t20tD7Ffrp-55" value="웹툰" style="whiteSpace=wrap;html=1;align=center;" vertex="1" parent="1">
          <mxGeometry x="2279.7999877929688" y="1158" width="100" height="40" as="geometry" />
        </mxCell>
        <mxCell id="WIp5kh_jE5t20tD7Ffrp-56" style="edgeStyle=orthogonalEdgeStyle;rounded=0;orthogonalLoop=1;jettySize=auto;html=1;entryX=0.5;entryY=1;entryDx=0;entryDy=0;fillColor=#fff2cc;strokeColor=#d6b656;" edge="1" parent="1" source="WIp5kh_jE5t20tD7Ffrp-59" target="WIp5kh_jE5t20tD7Ffrp-50">
          <mxGeometry relative="1" as="geometry" />
        </mxCell>
        <mxCell id="WIp5kh_jE5t20tD7Ffrp-57" style="edgeStyle=orthogonalEdgeStyle;rounded=0;orthogonalLoop=1;jettySize=auto;html=1;entryX=0.5;entryY=1;entryDx=0;entryDy=0;fillColor=#fff2cc;strokeColor=#d6b656;" edge="1" parent="1" source="WIp5kh_jE5t20tD7Ffrp-59" target="WIp5kh_jE5t20tD7Ffrp-52">
          <mxGeometry relative="1" as="geometry">
            <Array as="points">
              <mxPoint x="2129.7999877929688" y="1343" />
              <mxPoint x="1899.7999877929688" y="1343" />
            </Array>
          </mxGeometry>
        </mxCell>
        <mxCell id="WIp5kh_jE5t20tD7Ffrp-58" style="edgeStyle=orthogonalEdgeStyle;rounded=0;orthogonalLoop=1;jettySize=auto;html=1;entryX=0.5;entryY=1;entryDx=0;entryDy=0;fillColor=#fff2cc;strokeColor=#d6b656;" edge="1" parent="1" source="WIp5kh_jE5t20tD7Ffrp-59" target="WIp5kh_jE5t20tD7Ffrp-55">
          <mxGeometry relative="1" as="geometry">
            <Array as="points">
              <mxPoint x="2129.7999877929688" y="1343" />
              <mxPoint x="2340.7999877929688" y="1343" />
            </Array>
          </mxGeometry>
        </mxCell>
        <mxCell id="WIp5kh_jE5t20tD7Ffrp-59" value="게시" style="shape=rhombus;perimeter=rhombusPerimeter;whiteSpace=wrap;html=1;align=center;" vertex="1" parent="1">
          <mxGeometry x="2069.7999877929688" y="1443" width="120" height="60" as="geometry" />
        </mxCell>
        <mxCell id="WIp5kh_jE5t20tD7Ffrp-60" value="장르키" style="ellipse;whiteSpace=wrap;html=1;align=center;" vertex="1" parent="1">
          <mxGeometry x="1418.7999877929688" y="1573" width="100" height="40" as="geometry" />
        </mxCell>
        <mxCell id="WIp5kh_jE5t20tD7Ffrp-61" style="edgeStyle=orthogonalEdgeStyle;rounded=0;orthogonalLoop=1;jettySize=auto;html=1;exitX=1;exitY=0.5;exitDx=0;exitDy=0;" edge="1" parent="1" source="WIp5kh_jE5t20tD7Ffrp-62" target="WIp5kh_jE5t20tD7Ffrp-6">
          <mxGeometry relative="1" as="geometry" />
        </mxCell>
        <mxCell id="WIp5kh_jE5t20tD7Ffrp-62" value="작성" style="shape=rhombus;perimeter=rhombusPerimeter;whiteSpace=wrap;html=1;align=center;" vertex="1" parent="1">
          <mxGeometry x="1142.7999877929688" y="1443" width="120" height="60" as="geometry" />
        </mxCell>
        <mxCell id="WIp5kh_jE5t20tD7Ffrp-63" style="edgeStyle=orthogonalEdgeStyle;rounded=0;orthogonalLoop=1;jettySize=auto;html=1;entryX=1;entryY=0.5;entryDx=0;entryDy=0;fillColor=#dae8fc;strokeColor=#6c8ebf;" edge="1" parent="1" source="WIp5kh_jE5t20tD7Ffrp-64" target="WIp5kh_jE5t20tD7Ffrp-111">
          <mxGeometry relative="1" as="geometry" />
        </mxCell>
        <mxCell id="WIp5kh_jE5t20tD7Ffrp-64" value="미디어 경로" style="whiteSpace=wrap;html=1;align=center;" vertex="1" parent="1">
          <mxGeometry x="2560.7999877929688" y="993" width="100" height="40" as="geometry" />
        </mxCell>
        <mxCell id="WIp5kh_jE5t20tD7Ffrp-65" value="회원코드" style="ellipse;whiteSpace=wrap;html=1;align=center;fontStyle=4;" vertex="1" parent="1">
          <mxGeometry x="993.7999877929688" y="1038" width="100" height="40" as="geometry" />
        </mxCell>
        <mxCell id="WIp5kh_jE5t20tD7Ffrp-67" value="상품번호" style="ellipse;whiteSpace=wrap;html=1;align=center;fontStyle=4;" vertex="1" parent="1">
          <mxGeometry x="1909.7999877929688" y="938" width="100" height="40" as="geometry" />
        </mxCell>
        <mxCell id="WIp5kh_jE5t20tD7Ffrp-68" value="영화명" style="ellipse;whiteSpace=wrap;html=1;align=center;" vertex="1" parent="1">
          <mxGeometry x="2079.7999877929688" y="1223" width="100" height="40" as="geometry" />
        </mxCell>
        <mxCell id="WIp5kh_jE5t20tD7Ffrp-69" value="배우" style="ellipse;whiteSpace=wrap;html=1;align=center;" vertex="1" parent="1">
          <mxGeometry x="2179.7999877929688" y="1223" width="100" height="40" as="geometry" />
        </mxCell>
        <mxCell id="WIp5kh_jE5t20tD7Ffrp-70" value="웹툰명" style="ellipse;whiteSpace=wrap;html=1;align=center;" vertex="1" parent="1">
          <mxGeometry x="2409.7999877929688" y="1218" width="100" height="40" as="geometry" />
        </mxCell>
        <mxCell id="WIp5kh_jE5t20tD7Ffrp-71" value="작가(글, 그림)" style="ellipse;whiteSpace=wrap;html=1;align=center;" vertex="1" parent="1">
          <mxGeometry x="2409.7999877929688" y="1138" width="100" height="40" as="geometry" />
        </mxCell>
        <mxCell id="WIp5kh_jE5t20tD7Ffrp-72" value="줄거리" style="ellipse;whiteSpace=wrap;html=1;align=center;" vertex="1" parent="1">
          <mxGeometry x="2409.7999877929688" y="1098" width="100" height="40" as="geometry" />
        </mxCell>
        <mxCell id="WIp5kh_jE5t20tD7Ffrp-73" value="게임명" style="ellipse;whiteSpace=wrap;html=1;align=center;" vertex="1" parent="1">
          <mxGeometry x="1729.7999877929688" y="1158" width="100" height="40" as="geometry" />
        </mxCell>
        <mxCell id="WIp5kh_jE5t20tD7Ffrp-74" value="개발사" style="ellipse;whiteSpace=wrap;html=1;align=center;" vertex="1" parent="1">
          <mxGeometry x="1729.7999877929688" y="1118" width="100" height="40" as="geometry" />
        </mxCell>
        <mxCell id="WIp5kh_jE5t20tD7Ffrp-75" value="가격" style="ellipse;whiteSpace=wrap;html=1;align=center;" vertex="1" parent="1">
          <mxGeometry x="1729.7999877929688" y="1078" width="100" height="40" as="geometry" />
        </mxCell>
        <mxCell id="WIp5kh_jE5t20tD7Ffrp-76" value="플랫폼" style="ellipse;whiteSpace=wrap;html=1;align=center;" vertex="1" parent="1">
          <mxGeometry x="1729.7999877929688" y="1238" width="100" height="40" as="geometry" />
        </mxCell>
        <mxCell id="WIp5kh_jE5t20tD7Ffrp-77" value="대댓글번호" style="ellipse;whiteSpace=wrap;html=1;align=center;fontStyle=4;" vertex="1" parent="1">
          <mxGeometry x="788.7999877929688" y="1423" width="100" height="40" as="geometry" />
        </mxCell>
        <mxCell id="WIp5kh_jE5t20tD7Ffrp-78" value="댓글번호" style="ellipse;whiteSpace=wrap;html=1;align=center;fontStyle=4;" vertex="1" parent="1">
          <mxGeometry x="1518.7999877929688" y="1573" width="100" height="40" as="geometry" />
        </mxCell>
        <mxCell id="WIp5kh_jE5t20tD7Ffrp-79" value="N" style="text;html=1;align=center;verticalAlign=middle;whiteSpace=wrap;rounded=0;" vertex="1" parent="1">
          <mxGeometry x="1108.7999877929688" y="1443" width="60" height="30" as="geometry" />
        </mxCell>
        <mxCell id="WIp5kh_jE5t20tD7Ffrp-80" value="1" style="text;html=1;align=center;verticalAlign=middle;whiteSpace=wrap;rounded=0;" vertex="1" parent="1">
          <mxGeometry x="1248.7999877929688" y="1443" width="60" height="30" as="geometry" />
        </mxCell>
        <mxCell id="WIp5kh_jE5t20tD7Ffrp-81" value="영화코드" style="ellipse;whiteSpace=wrap;html=1;align=center;fontStyle=4;" vertex="1" parent="1">
          <mxGeometry x="1979.7999877929688" y="1223" width="100" height="40" as="geometry" />
        </mxCell>
        <mxCell id="WIp5kh_jE5t20tD7Ffrp-82" value="게임코드" style="ellipse;whiteSpace=wrap;html=1;align=center;fontStyle=4;" vertex="1" parent="1">
          <mxGeometry x="1729.7999877929688" y="1198" width="100" height="40" as="geometry" />
        </mxCell>
        <mxCell id="WIp5kh_jE5t20tD7Ffrp-83" style="edgeStyle=none;rounded=0;orthogonalLoop=1;jettySize=auto;html=1;entryX=0.5;entryY=0;entryDx=0;entryDy=0;exitX=0;exitY=1;exitDx=0;exitDy=0;" edge="1" parent="1" source="WIp5kh_jE5t20tD7Ffrp-85" target="WIp5kh_jE5t20tD7Ffrp-104">
          <mxGeometry relative="1" as="geometry" />
        </mxCell>
        <mxCell id="WIp5kh_jE5t20tD7Ffrp-84" style="edgeStyle=none;rounded=0;orthogonalLoop=1;jettySize=auto;html=1;entryX=0.5;entryY=0;entryDx=0;entryDy=0;exitX=1;exitY=1;exitDx=0;exitDy=0;" edge="1" parent="1" source="WIp5kh_jE5t20tD7Ffrp-85" target="WIp5kh_jE5t20tD7Ffrp-107">
          <mxGeometry relative="1" as="geometry" />
        </mxCell>
        <mxCell id="WIp5kh_jE5t20tD7Ffrp-85" value="장르" style="whiteSpace=wrap;html=1;align=center;" vertex="1" parent="1">
          <mxGeometry x="1782.2999877929688" y="563" width="100" height="40" as="geometry" />
        </mxCell>
        <mxCell id="WIp5kh_jE5t20tD7Ffrp-86" style="edgeStyle=none;rounded=0;orthogonalLoop=1;jettySize=auto;html=1;entryX=1;entryY=0;entryDx=0;entryDy=0;" edge="1" parent="1" source="WIp5kh_jE5t20tD7Ffrp-87" target="WIp5kh_jE5t20tD7Ffrp-1">
          <mxGeometry relative="1" as="geometry">
            <mxPoint x="1329.7999877929688" y="983" as="targetPoint" />
          </mxGeometry>
        </mxCell>
        <mxCell id="WIp5kh_jE5t20tD7Ffrp-87" value="취향" style="shape=rhombus;perimeter=rhombusPerimeter;whiteSpace=wrap;html=1;align=center;" vertex="1" parent="1">
          <mxGeometry x="1208.7999877929688" y="778" width="120" height="60" as="geometry" />
        </mxCell>
        <mxCell id="WIp5kh_jE5t20tD7Ffrp-88" value="장르명" style="ellipse;whiteSpace=wrap;html=1;align=center;" vertex="1" parent="1">
          <mxGeometry x="1847.2999877929688" y="508" width="100" height="40" as="geometry" />
        </mxCell>
        <mxCell id="WIp5kh_jE5t20tD7Ffrp-89" value="장르코드" style="ellipse;whiteSpace=wrap;html=1;align=center;fontStyle=4;" vertex="1" parent="1">
          <mxGeometry x="1717.2999877929688" y="508" width="100" height="40" as="geometry" />
        </mxCell>
        <mxCell id="WIp5kh_jE5t20tD7Ffrp-90" value="콘텐츠 종류" style="ellipse;whiteSpace=wrap;html=1;align=center;" vertex="1" parent="1">
          <mxGeometry x="1784.2999877929688" y="478" width="100" height="40" as="geometry" />
        </mxCell>
        <mxCell id="WIp5kh_jE5t20tD7Ffrp-91" style="edgeStyle=orthogonalEdgeStyle;rounded=0;orthogonalLoop=1;jettySize=auto;html=1;entryX=0.5;entryY=0;entryDx=0;entryDy=0;" edge="1" parent="1" source="WIp5kh_jE5t20tD7Ffrp-92" target="WIp5kh_jE5t20tD7Ffrp-87">
          <mxGeometry relative="1" as="geometry" />
        </mxCell>
        <mxCell id="WIp5kh_jE5t20tD7Ffrp-92" value="유저 취향" style="whiteSpace=wrap;html=1;align=center;" vertex="1" parent="1">
          <mxGeometry x="1468.7999877929688" y="738" width="100" height="40" as="geometry" />
        </mxCell>
        <mxCell id="WIp5kh_jE5t20tD7Ffrp-93" style="edgeStyle=none;rounded=0;orthogonalLoop=1;jettySize=auto;html=1;" edge="1" parent="1" source="WIp5kh_jE5t20tD7Ffrp-94" target="WIp5kh_jE5t20tD7Ffrp-101">
          <mxGeometry relative="1" as="geometry" />
        </mxCell>
        <mxCell id="WIp5kh_jE5t20tD7Ffrp-94" value="콘텐츠 장르" style="whiteSpace=wrap;html=1;align=center;" vertex="1" parent="1">
          <mxGeometry x="2079.7999877929688" y="737" width="100" height="40" as="geometry" />
        </mxCell>
        <mxCell id="WIp5kh_jE5t20tD7Ffrp-95" style="edgeStyle=none;rounded=0;orthogonalLoop=1;jettySize=auto;html=1;entryX=1;entryY=0.5;entryDx=0;entryDy=0;exitX=0;exitY=0.5;exitDx=0;exitDy=0;" edge="1" parent="1" source="WIp5kh_jE5t20tD7Ffrp-104" target="WIp5kh_jE5t20tD7Ffrp-92">
          <mxGeometry relative="1" as="geometry">
            <mxPoint x="1679.7999877929688" y="717" as="sourcePoint" />
          </mxGeometry>
        </mxCell>
        <mxCell id="WIp5kh_jE5t20tD7Ffrp-96" value="웹툰코드" style="ellipse;whiteSpace=wrap;html=1;align=center;fontStyle=4;" vertex="1" parent="1">
          <mxGeometry x="2409.7999877929688" y="1178" width="100" height="40" as="geometry" />
        </mxCell>
        <mxCell id="WIp5kh_jE5t20tD7Ffrp-97" style="edgeStyle=none;rounded=0;orthogonalLoop=1;jettySize=auto;html=1;exitX=1;exitY=0.5;exitDx=0;exitDy=0;entryX=0;entryY=0.5;entryDx=0;entryDy=0;" edge="1" parent="1" source="WIp5kh_jE5t20tD7Ffrp-107" target="WIp5kh_jE5t20tD7Ffrp-94">
          <mxGeometry relative="1" as="geometry">
            <mxPoint x="2138.7999877929688" y="743" as="targetPoint" />
          </mxGeometry>
        </mxCell>
        <mxCell id="WIp5kh_jE5t20tD7Ffrp-98" value="1" style="text;html=1;align=center;verticalAlign=middle;whiteSpace=wrap;rounded=0;" vertex="1" parent="1">
          <mxGeometry x="1594.7999877929688" y="963" width="60" height="30" as="geometry" />
        </mxCell>
        <mxCell id="WIp5kh_jE5t20tD7Ffrp-99" value="1" style="text;html=1;align=center;verticalAlign=middle;whiteSpace=wrap;rounded=0;" vertex="1" parent="1">
          <mxGeometry x="1468.7999877929688" y="968" width="60" height="30" as="geometry" />
        </mxCell>
        <mxCell id="WIp5kh_jE5t20tD7Ffrp-100" value="" style="group" vertex="1" connectable="0" parent="1">
          <mxGeometry x="2069.7999877929688" y="793" width="120" height="110" as="geometry" />
        </mxCell>
        <mxCell id="WIp5kh_jE5t20tD7Ffrp-101" value="장르" style="shape=rhombus;perimeter=rhombusPerimeter;whiteSpace=wrap;html=1;align=center;" vertex="1" parent="WIp5kh_jE5t20tD7Ffrp-100">
          <mxGeometry y="30" width="120" height="60" as="geometry" />
        </mxCell>
        <mxCell id="WIp5kh_jE5t20tD7Ffrp-102" value="1" style="text;html=1;align=center;verticalAlign=middle;whiteSpace=wrap;rounded=0;" vertex="1" parent="WIp5kh_jE5t20tD7Ffrp-100">
          <mxGeometry x="50" width="60" height="30" as="geometry" />
        </mxCell>
        <mxCell id="WIp5kh_jE5t20tD7Ffrp-103" value="1" style="text;html=1;align=center;verticalAlign=middle;whiteSpace=wrap;rounded=0;" vertex="1" parent="WIp5kh_jE5t20tD7Ffrp-100">
          <mxGeometry x="60" y="80" width="60" height="30" as="geometry" />
        </mxCell>
        <mxCell id="WIp5kh_jE5t20tD7Ffrp-104" value="취향" style="shape=rhombus;perimeter=rhombusPerimeter;whiteSpace=wrap;html=1;align=center;" vertex="1" parent="1">
          <mxGeometry x="1679.2999877929688" y="727" width="120" height="60" as="geometry" />
        </mxCell>
        <mxCell id="WIp5kh_jE5t20tD7Ffrp-105" value="1" style="text;html=1;align=center;verticalAlign=middle;whiteSpace=wrap;rounded=0;" vertex="1" parent="1">
          <mxGeometry x="1694.7999877929688" y="697" width="60" height="30" as="geometry" />
        </mxCell>
        <mxCell id="WIp5kh_jE5t20tD7Ffrp-106" value="N" style="text;html=1;align=center;verticalAlign=middle;whiteSpace=wrap;rounded=0;" vertex="1" parent="1">
          <mxGeometry x="1648.7999877929688" y="727" width="60" height="30" as="geometry" />
        </mxCell>
        <mxCell id="WIp5kh_jE5t20tD7Ffrp-107" value="장르" style="shape=rhombus;perimeter=rhombusPerimeter;whiteSpace=wrap;html=1;align=center;" vertex="1" parent="1">
          <mxGeometry x="1859.7999877929688" y="727" width="120" height="60" as="geometry" />
        </mxCell>
        <mxCell id="WIp5kh_jE5t20tD7Ffrp-108" value="1" style="text;html=1;align=center;verticalAlign=middle;whiteSpace=wrap;rounded=0;" vertex="1" parent="1">
          <mxGeometry x="1899.7999877929688" y="697" width="60" height="30" as="geometry" />
        </mxCell>
        <mxCell id="WIp5kh_jE5t20tD7Ffrp-109" value="N" style="text;html=1;align=center;verticalAlign=middle;whiteSpace=wrap;rounded=0;" vertex="1" parent="1">
          <mxGeometry x="1949.7999877929688" y="728" width="60" height="30" as="geometry" />
        </mxCell>
        <mxCell id="WIp5kh_jE5t20tD7Ffrp-110" value="" style="group" vertex="1" connectable="0" parent="1">
          <mxGeometry x="2339.7999877929688" y="953" width="120" height="110" as="geometry" />
        </mxCell>
        <mxCell id="WIp5kh_jE5t20tD7Ffrp-111" value="경로" style="shape=rhombus;perimeter=rhombusPerimeter;whiteSpace=wrap;html=1;align=center;" vertex="1" parent="WIp5kh_jE5t20tD7Ffrp-110">
          <mxGeometry y="30" width="120" height="60" as="geometry" />
        </mxCell>
        <mxCell id="WIp5kh_jE5t20tD7Ffrp-112" value="1" style="text;html=1;align=center;verticalAlign=middle;whiteSpace=wrap;rounded=0;" vertex="1" parent="WIp5kh_jE5t20tD7Ffrp-110">
          <mxGeometry x="50" width="60" height="30" as="geometry" />
        </mxCell>
        <mxCell id="WIp5kh_jE5t20tD7Ffrp-113" value="1" style="text;html=1;align=center;verticalAlign=middle;whiteSpace=wrap;rounded=0;" vertex="1" parent="WIp5kh_jE5t20tD7Ffrp-110">
          <mxGeometry x="60" y="80" width="60" height="30" as="geometry" />
        </mxCell>
        <mxCell id="WIp5kh_jE5t20tD7Ffrp-114" style="edgeStyle=orthogonalEdgeStyle;rounded=0;orthogonalLoop=1;jettySize=auto;html=1;entryX=1;entryY=0.5;entryDx=0;entryDy=0;fillColor=#dae8fc;strokeColor=#6c8ebf;" edge="1" parent="1" source="WIp5kh_jE5t20tD7Ffrp-111" target="WIp5kh_jE5t20tD7Ffrp-55">
          <mxGeometry relative="1" as="geometry" />
        </mxCell>
        <mxCell id="WIp5kh_jE5t20tD7Ffrp-115" style="edgeStyle=orthogonalEdgeStyle;rounded=0;orthogonalLoop=1;jettySize=auto;html=1;entryX=1;entryY=0.5;entryDx=0;entryDy=0;" edge="1" parent="1" source="WIp5kh_jE5t20tD7Ffrp-111" target="WIp5kh_jE5t20tD7Ffrp-3">
          <mxGeometry relative="1" as="geometry">
            <Array as="points">
              <mxPoint x="2269.7999877929688" y="1013" />
              <mxPoint x="2269.7999877929688" y="1013" />
            </Array>
          </mxGeometry>
        </mxCell>
        <mxCell id="WIp5kh_jE5t20tD7Ffrp-116" value="파일이름" style="ellipse;whiteSpace=wrap;html=1;align=center;" vertex="1" parent="1">
          <mxGeometry x="2669.7999877929688" y="993" width="100" height="40" as="geometry" />
        </mxCell>
        <mxCell id="WIp5kh_jE5t20tD7Ffrp-117" value="경로번호" style="ellipse;whiteSpace=wrap;html=1;align=center;fontStyle=4;" vertex="1" parent="1">
          <mxGeometry x="2669.7999877929688" y="953" width="100" height="40" as="geometry" />
        </mxCell>
        <mxCell id="WIp5kh_jE5t20tD7Ffrp-118" value="파일경로" style="ellipse;whiteSpace=wrap;html=1;align=center;" vertex="1" parent="1">
          <mxGeometry x="2669.7999877929688" y="1033" width="100" height="40" as="geometry" />
        </mxCell>
        <mxCell id="WIp5kh_jE5t20tD7Ffrp-120" value="콘텐츠종류" style="ellipse;whiteSpace=wrap;html=1;align=center;" vertex="1" parent="1">
          <mxGeometry x="2129.7999877929688" y="682" width="100" height="40" as="geometry" />
        </mxCell>
        <mxCell id="hpuPmGb2xpUNbvtJzMHl-1" value="회원등급" style="ellipse;whiteSpace=wrap;html=1;align=center;" vertex="1" parent="1">
          <mxGeometry x="993.8" y="918" width="100" height="40" as="geometry" />
        </mxCell>
        <mxCell id="hpuPmGb2xpUNbvtJzMHl-3" value="1" style="text;html=1;align=center;verticalAlign=middle;whiteSpace=wrap;rounded=0;" vertex="1" parent="1">
          <mxGeometry x="1219.8" y="757" width="60" height="30" as="geometry" />
        </mxCell>
        <mxCell id="KKgKCfSw52029NsnKBtO-1" value="장르명" style="ellipse;whiteSpace=wrap;html=1;align=center;" vertex="1" parent="1">
          <mxGeometry x="1418.8" y="687" width="100" height="40" as="geometry" />
        </mxCell>
        <mxCell id="KKgKCfSw52029NsnKBtO-2" value="장르명" style="ellipse;whiteSpace=wrap;html=1;align=center;" vertex="1" parent="1">
          <mxGeometry x="2029.8" y="682" width="100" height="40" as="geometry" />
        </mxCell>
        <mxCell id="KKgKCfSw52029NsnKBtO-3" value="줄거리" style="ellipse;whiteSpace=wrap;html=1;align=center;" vertex="1" parent="1">
          <mxGeometry x="2029.8" y="1263" width="100" height="40" as="geometry" />
        </mxCell>
        <mxCell id="vciFRc02xjr170wM93CZ-1" value="감독" style="ellipse;whiteSpace=wrap;html=1;align=center;" vertex="1" parent="1">
          <mxGeometry x="2129.8" y="1263" width="100" height="40" as="geometry" />
        </mxCell>
      </root>
    </mxGraphModel>
  </diagram>
  <diagram name="페이지-2" id="cMk7n5Z5VNrPPeYAKyKy">
    <mxGraphModel dx="1765" dy="620" grid="1" gridSize="10" guides="1" tooltips="1" connect="1" arrows="1" fold="1" page="1" pageScale="1" pageWidth="827" pageHeight="1169" math="0" shadow="0">
      <root>
        <mxCell id="0" />
        <mxCell id="1" parent="0" />
        <mxCell id="TikH2mouzczNRT9Rnf8L-19" value="유저" style="shape=table;startSize=30;container=1;collapsible=1;childLayout=tableLayout;fixedRows=1;rowLines=0;fontStyle=1;align=center;resizeLast=1;html=1;whiteSpace=wrap;" parent="1" vertex="1">
          <mxGeometry x="470" y="1154" width="180" height="180" as="geometry" />
        </mxCell>
        <mxCell id="TikH2mouzczNRT9Rnf8L-20" value="" style="shape=tableRow;horizontal=0;startSize=0;swimlaneHead=0;swimlaneBody=0;fillColor=none;collapsible=0;dropTarget=0;points=[[0,0.5],[1,0.5]];portConstraint=eastwest;top=0;left=0;right=0;bottom=0;html=1;" parent="TikH2mouzczNRT9Rnf8L-19" vertex="1">
          <mxGeometry y="30" width="180" height="30" as="geometry" />
        </mxCell>
        <mxCell id="TikH2mouzczNRT9Rnf8L-21" value="PK" style="shape=partialRectangle;connectable=0;fillColor=none;top=0;left=0;bottom=0;right=0;fontStyle=1;overflow=hidden;html=1;whiteSpace=wrap;" parent="TikH2mouzczNRT9Rnf8L-20" vertex="1">
          <mxGeometry width="60" height="30" as="geometry">
            <mxRectangle width="60" height="30" as="alternateBounds" />
          </mxGeometry>
        </mxCell>
        <mxCell id="TikH2mouzczNRT9Rnf8L-22" value="회원코드" style="shape=partialRectangle;connectable=0;fillColor=none;top=0;left=0;bottom=0;right=0;align=left;spacingLeft=6;fontStyle=5;overflow=hidden;html=1;whiteSpace=wrap;" parent="TikH2mouzczNRT9Rnf8L-20" vertex="1">
          <mxGeometry x="60" width="120" height="30" as="geometry">
            <mxRectangle width="120" height="30" as="alternateBounds" />
          </mxGeometry>
        </mxCell>
        <mxCell id="TikH2mouzczNRT9Rnf8L-26" value="" style="shape=tableRow;horizontal=0;startSize=0;swimlaneHead=0;swimlaneBody=0;fillColor=none;collapsible=0;dropTarget=0;points=[[0,0.5],[1,0.5]];portConstraint=eastwest;top=0;left=0;right=0;bottom=0;html=1;" parent="TikH2mouzczNRT9Rnf8L-19" vertex="1">
          <mxGeometry y="60" width="180" height="30" as="geometry" />
        </mxCell>
        <mxCell id="TikH2mouzczNRT9Rnf8L-27" value="" style="shape=partialRectangle;connectable=0;fillColor=none;top=0;left=0;bottom=0;right=0;editable=1;overflow=hidden;html=1;whiteSpace=wrap;" parent="TikH2mouzczNRT9Rnf8L-26" vertex="1">
          <mxGeometry width="60" height="30" as="geometry">
            <mxRectangle width="60" height="30" as="alternateBounds" />
          </mxGeometry>
        </mxCell>
        <mxCell id="TikH2mouzczNRT9Rnf8L-28" value="회원명" style="shape=partialRectangle;connectable=0;fillColor=none;top=0;left=0;bottom=0;right=0;align=left;spacingLeft=6;overflow=hidden;html=1;whiteSpace=wrap;" parent="TikH2mouzczNRT9Rnf8L-26" vertex="1">
          <mxGeometry x="60" width="120" height="30" as="geometry">
            <mxRectangle width="120" height="30" as="alternateBounds" />
          </mxGeometry>
        </mxCell>
        <mxCell id="TikH2mouzczNRT9Rnf8L-29" value="" style="shape=tableRow;horizontal=0;startSize=0;swimlaneHead=0;swimlaneBody=0;fillColor=none;collapsible=0;dropTarget=0;points=[[0,0.5],[1,0.5]];portConstraint=eastwest;top=0;left=0;right=0;bottom=0;html=1;" parent="TikH2mouzczNRT9Rnf8L-19" vertex="1">
          <mxGeometry y="90" width="180" height="30" as="geometry" />
        </mxCell>
        <mxCell id="TikH2mouzczNRT9Rnf8L-30" value="" style="shape=partialRectangle;connectable=0;fillColor=none;top=0;left=0;bottom=0;right=0;editable=1;overflow=hidden;html=1;whiteSpace=wrap;" parent="TikH2mouzczNRT9Rnf8L-29" vertex="1">
          <mxGeometry width="60" height="30" as="geometry">
            <mxRectangle width="60" height="30" as="alternateBounds" />
          </mxGeometry>
        </mxCell>
        <mxCell id="TikH2mouzczNRT9Rnf8L-31" value="이메일" style="shape=partialRectangle;connectable=0;fillColor=none;top=0;left=0;bottom=0;right=0;align=left;spacingLeft=6;overflow=hidden;html=1;whiteSpace=wrap;" parent="TikH2mouzczNRT9Rnf8L-29" vertex="1">
          <mxGeometry x="60" width="120" height="30" as="geometry">
            <mxRectangle width="120" height="30" as="alternateBounds" />
          </mxGeometry>
        </mxCell>
        <mxCell id="yH3JbBJxvhGBynLLPxkR-20" value="" style="shape=tableRow;horizontal=0;startSize=0;swimlaneHead=0;swimlaneBody=0;fillColor=none;collapsible=0;dropTarget=0;points=[[0,0.5],[1,0.5]];portConstraint=eastwest;top=0;left=0;right=0;bottom=0;html=1;" parent="TikH2mouzczNRT9Rnf8L-19" vertex="1">
          <mxGeometry y="120" width="180" height="30" as="geometry" />
        </mxCell>
        <mxCell id="yH3JbBJxvhGBynLLPxkR-21" value="" style="shape=partialRectangle;connectable=0;fillColor=none;top=0;left=0;bottom=0;right=0;editable=1;overflow=hidden;html=1;whiteSpace=wrap;" parent="yH3JbBJxvhGBynLLPxkR-20" vertex="1">
          <mxGeometry width="60" height="30" as="geometry">
            <mxRectangle width="60" height="30" as="alternateBounds" />
          </mxGeometry>
        </mxCell>
        <mxCell id="yH3JbBJxvhGBynLLPxkR-22" value="마일리지" style="shape=partialRectangle;connectable=0;fillColor=none;top=0;left=0;bottom=0;right=0;align=left;spacingLeft=6;overflow=hidden;html=1;whiteSpace=wrap;" parent="yH3JbBJxvhGBynLLPxkR-20" vertex="1">
          <mxGeometry x="60" width="120" height="30" as="geometry">
            <mxRectangle width="120" height="30" as="alternateBounds" />
          </mxGeometry>
        </mxCell>
        <mxCell id="EbYyHTh1wWm7esoZAWgI-1" value="" style="shape=tableRow;horizontal=0;startSize=0;swimlaneHead=0;swimlaneBody=0;fillColor=none;collapsible=0;dropTarget=0;points=[[0,0.5],[1,0.5]];portConstraint=eastwest;top=0;left=0;right=0;bottom=0;html=1;" vertex="1" parent="TikH2mouzczNRT9Rnf8L-19">
          <mxGeometry y="150" width="180" height="30" as="geometry" />
        </mxCell>
        <mxCell id="EbYyHTh1wWm7esoZAWgI-2" value="FK" style="shape=partialRectangle;connectable=0;fillColor=none;top=0;left=0;bottom=0;right=0;editable=1;overflow=hidden;html=1;whiteSpace=wrap;" vertex="1" parent="EbYyHTh1wWm7esoZAWgI-1">
          <mxGeometry width="60" height="30" as="geometry">
            <mxRectangle width="60" height="30" as="alternateBounds" />
          </mxGeometry>
        </mxCell>
        <mxCell id="EbYyHTh1wWm7esoZAWgI-3" value="상품번호" style="shape=partialRectangle;connectable=0;fillColor=none;top=0;left=0;bottom=0;right=0;align=left;spacingLeft=6;overflow=hidden;html=1;whiteSpace=wrap;" vertex="1" parent="EbYyHTh1wWm7esoZAWgI-1">
          <mxGeometry x="60" width="120" height="30" as="geometry">
            <mxRectangle width="120" height="30" as="alternateBounds" />
          </mxGeometry>
        </mxCell>
        <mxCell id="csWBge49t50IC-i_Ylmp-10" value="상품" style="shape=table;startSize=30;container=1;collapsible=1;childLayout=tableLayout;fixedRows=1;rowLines=0;fontStyle=1;align=center;resizeLast=1;html=1;whiteSpace=wrap;" parent="1" vertex="1">
          <mxGeometry x="900" y="1140" width="180" height="90" as="geometry" />
        </mxCell>
        <mxCell id="csWBge49t50IC-i_Ylmp-11" value="" style="shape=tableRow;horizontal=0;startSize=0;swimlaneHead=0;swimlaneBody=0;fillColor=none;collapsible=0;dropTarget=0;points=[[0,0.5],[1,0.5]];portConstraint=eastwest;top=0;left=0;right=0;bottom=0;html=1;" parent="csWBge49t50IC-i_Ylmp-10" vertex="1">
          <mxGeometry y="30" width="180" height="30" as="geometry" />
        </mxCell>
        <mxCell id="csWBge49t50IC-i_Ylmp-12" value="PK" style="shape=partialRectangle;connectable=0;fillColor=none;top=0;left=0;bottom=0;right=0;fontStyle=1;overflow=hidden;html=1;whiteSpace=wrap;" parent="csWBge49t50IC-i_Ylmp-11" vertex="1">
          <mxGeometry width="60" height="30" as="geometry">
            <mxRectangle width="60" height="30" as="alternateBounds" />
          </mxGeometry>
        </mxCell>
        <mxCell id="csWBge49t50IC-i_Ylmp-13" value="상품번호" style="shape=partialRectangle;connectable=0;fillColor=none;top=0;left=0;bottom=0;right=0;align=left;spacingLeft=6;fontStyle=5;overflow=hidden;html=1;whiteSpace=wrap;" parent="csWBge49t50IC-i_Ylmp-11" vertex="1">
          <mxGeometry x="60" width="120" height="30" as="geometry">
            <mxRectangle width="120" height="30" as="alternateBounds" />
          </mxGeometry>
        </mxCell>
        <mxCell id="csWBge49t50IC-i_Ylmp-17" value="" style="shape=tableRow;horizontal=0;startSize=0;swimlaneHead=0;swimlaneBody=0;fillColor=none;collapsible=0;dropTarget=0;points=[[0,0.5],[1,0.5]];portConstraint=eastwest;top=0;left=0;right=0;bottom=0;html=1;" parent="csWBge49t50IC-i_Ylmp-10" vertex="1">
          <mxGeometry y="60" width="180" height="30" as="geometry" />
        </mxCell>
        <mxCell id="csWBge49t50IC-i_Ylmp-18" value="" style="shape=partialRectangle;connectable=0;fillColor=none;top=0;left=0;bottom=0;right=0;editable=1;overflow=hidden;html=1;whiteSpace=wrap;" parent="csWBge49t50IC-i_Ylmp-17" vertex="1">
          <mxGeometry width="60" height="30" as="geometry">
            <mxRectangle width="60" height="30" as="alternateBounds" />
          </mxGeometry>
        </mxCell>
        <mxCell id="csWBge49t50IC-i_Ylmp-19" value="뱃지이름" style="shape=partialRectangle;connectable=0;fillColor=none;top=0;left=0;bottom=0;right=0;align=left;spacingLeft=6;overflow=hidden;html=1;whiteSpace=wrap;" parent="csWBge49t50IC-i_Ylmp-17" vertex="1">
          <mxGeometry x="60" width="120" height="30" as="geometry">
            <mxRectangle width="120" height="30" as="alternateBounds" />
          </mxGeometry>
        </mxCell>
        <mxCell id="RrWgsIVMLDoqZtjO-kZ2-24" value="댓글" style="shape=table;startSize=30;container=1;collapsible=1;childLayout=tableLayout;fixedRows=1;rowLines=0;fontStyle=1;align=center;resizeLast=1;html=1;whiteSpace=wrap;" parent="1" vertex="1">
          <mxGeometry x="470" y="1520" width="180" height="240" as="geometry" />
        </mxCell>
        <mxCell id="RrWgsIVMLDoqZtjO-kZ2-25" value="" style="shape=tableRow;horizontal=0;startSize=0;swimlaneHead=0;swimlaneBody=0;fillColor=none;collapsible=0;dropTarget=0;points=[[0,0.5],[1,0.5]];portConstraint=eastwest;top=0;left=0;right=0;bottom=0;html=1;" parent="RrWgsIVMLDoqZtjO-kZ2-24" vertex="1">
          <mxGeometry y="30" width="180" height="30" as="geometry" />
        </mxCell>
        <mxCell id="RrWgsIVMLDoqZtjO-kZ2-26" value="PK" style="shape=partialRectangle;connectable=0;fillColor=none;top=0;left=0;bottom=0;right=0;fontStyle=1;overflow=hidden;html=1;whiteSpace=wrap;" parent="RrWgsIVMLDoqZtjO-kZ2-25" vertex="1">
          <mxGeometry width="60" height="30" as="geometry">
            <mxRectangle width="60" height="30" as="alternateBounds" />
          </mxGeometry>
        </mxCell>
        <mxCell id="RrWgsIVMLDoqZtjO-kZ2-27" value="댓글번호" style="shape=partialRectangle;connectable=0;fillColor=none;top=0;left=0;bottom=0;right=0;align=left;spacingLeft=6;fontStyle=5;overflow=hidden;html=1;whiteSpace=wrap;" parent="RrWgsIVMLDoqZtjO-kZ2-25" vertex="1">
          <mxGeometry x="60" width="120" height="30" as="geometry">
            <mxRectangle width="120" height="30" as="alternateBounds" />
          </mxGeometry>
        </mxCell>
        <mxCell id="80NQPymvNUorhPCaU9OU-4" value="" style="shape=tableRow;horizontal=0;startSize=0;swimlaneHead=0;swimlaneBody=0;fillColor=none;collapsible=0;dropTarget=0;points=[[0,0.5],[1,0.5]];portConstraint=eastwest;top=0;left=0;right=0;bottom=0;html=1;" parent="RrWgsIVMLDoqZtjO-kZ2-24" vertex="1">
          <mxGeometry y="60" width="180" height="30" as="geometry" />
        </mxCell>
        <mxCell id="80NQPymvNUorhPCaU9OU-5" value="FK" style="shape=partialRectangle;connectable=0;fillColor=none;top=0;left=0;bottom=0;right=0;fontStyle=1;overflow=hidden;html=1;whiteSpace=wrap;" parent="80NQPymvNUorhPCaU9OU-4" vertex="1">
          <mxGeometry width="60" height="30" as="geometry">
            <mxRectangle width="60" height="30" as="alternateBounds" />
          </mxGeometry>
        </mxCell>
        <mxCell id="80NQPymvNUorhPCaU9OU-6" value="회원코드" style="shape=partialRectangle;connectable=0;fillColor=none;top=0;left=0;bottom=0;right=0;align=left;spacingLeft=6;fontStyle=5;overflow=hidden;html=1;whiteSpace=wrap;" parent="80NQPymvNUorhPCaU9OU-4" vertex="1">
          <mxGeometry x="60" width="120" height="30" as="geometry">
            <mxRectangle width="120" height="30" as="alternateBounds" />
          </mxGeometry>
        </mxCell>
        <mxCell id="RrWgsIVMLDoqZtjO-kZ2-28" value="" style="shape=tableRow;horizontal=0;startSize=0;swimlaneHead=0;swimlaneBody=0;fillColor=none;collapsible=0;dropTarget=0;points=[[0,0.5],[1,0.5]];portConstraint=eastwest;top=0;left=0;right=0;bottom=1;html=1;" parent="RrWgsIVMLDoqZtjO-kZ2-24" vertex="1">
          <mxGeometry y="90" width="180" height="30" as="geometry" />
        </mxCell>
        <mxCell id="RrWgsIVMLDoqZtjO-kZ2-29" value="FK" style="shape=partialRectangle;connectable=0;fillColor=none;top=0;left=0;bottom=0;right=0;fontStyle=1;overflow=hidden;html=1;whiteSpace=wrap;" parent="RrWgsIVMLDoqZtjO-kZ2-28" vertex="1">
          <mxGeometry width="60" height="30" as="geometry">
            <mxRectangle width="60" height="30" as="alternateBounds" />
          </mxGeometry>
        </mxCell>
        <mxCell id="RrWgsIVMLDoqZtjO-kZ2-30" value="영화, 게임, 웹툰번호" style="shape=partialRectangle;connectable=0;fillColor=none;top=0;left=0;bottom=0;right=0;align=left;spacingLeft=6;fontStyle=5;overflow=hidden;html=1;whiteSpace=wrap;" parent="RrWgsIVMLDoqZtjO-kZ2-28" vertex="1">
          <mxGeometry x="60" width="120" height="30" as="geometry">
            <mxRectangle width="120" height="30" as="alternateBounds" />
          </mxGeometry>
        </mxCell>
        <mxCell id="RrWgsIVMLDoqZtjO-kZ2-31" value="" style="shape=tableRow;horizontal=0;startSize=0;swimlaneHead=0;swimlaneBody=0;fillColor=none;collapsible=0;dropTarget=0;points=[[0,0.5],[1,0.5]];portConstraint=eastwest;top=0;left=0;right=0;bottom=0;html=1;" parent="RrWgsIVMLDoqZtjO-kZ2-24" vertex="1">
          <mxGeometry y="120" width="180" height="30" as="geometry" />
        </mxCell>
        <mxCell id="RrWgsIVMLDoqZtjO-kZ2-32" value="" style="shape=partialRectangle;connectable=0;fillColor=none;top=0;left=0;bottom=0;right=0;editable=1;overflow=hidden;html=1;whiteSpace=wrap;" parent="RrWgsIVMLDoqZtjO-kZ2-31" vertex="1">
          <mxGeometry width="60" height="30" as="geometry">
            <mxRectangle width="60" height="30" as="alternateBounds" />
          </mxGeometry>
        </mxCell>
        <mxCell id="RrWgsIVMLDoqZtjO-kZ2-33" value="작성자" style="shape=partialRectangle;connectable=0;fillColor=none;top=0;left=0;bottom=0;right=0;align=left;spacingLeft=6;overflow=hidden;html=1;whiteSpace=wrap;" parent="RrWgsIVMLDoqZtjO-kZ2-31" vertex="1">
          <mxGeometry x="60" width="120" height="30" as="geometry">
            <mxRectangle width="120" height="30" as="alternateBounds" />
          </mxGeometry>
        </mxCell>
        <mxCell id="RrWgsIVMLDoqZtjO-kZ2-34" value="" style="shape=tableRow;horizontal=0;startSize=0;swimlaneHead=0;swimlaneBody=0;fillColor=none;collapsible=0;dropTarget=0;points=[[0,0.5],[1,0.5]];portConstraint=eastwest;top=0;left=0;right=0;bottom=0;html=1;" parent="RrWgsIVMLDoqZtjO-kZ2-24" vertex="1">
          <mxGeometry y="150" width="180" height="30" as="geometry" />
        </mxCell>
        <mxCell id="RrWgsIVMLDoqZtjO-kZ2-35" value="" style="shape=partialRectangle;connectable=0;fillColor=none;top=0;left=0;bottom=0;right=0;editable=1;overflow=hidden;html=1;whiteSpace=wrap;" parent="RrWgsIVMLDoqZtjO-kZ2-34" vertex="1">
          <mxGeometry width="60" height="30" as="geometry">
            <mxRectangle width="60" height="30" as="alternateBounds" />
          </mxGeometry>
        </mxCell>
        <mxCell id="RrWgsIVMLDoqZtjO-kZ2-36" value="내용" style="shape=partialRectangle;connectable=0;fillColor=none;top=0;left=0;bottom=0;right=0;align=left;spacingLeft=6;overflow=hidden;html=1;whiteSpace=wrap;" parent="RrWgsIVMLDoqZtjO-kZ2-34" vertex="1">
          <mxGeometry x="60" width="120" height="30" as="geometry">
            <mxRectangle width="120" height="30" as="alternateBounds" />
          </mxGeometry>
        </mxCell>
        <mxCell id="RrWgsIVMLDoqZtjO-kZ2-37" value="" style="shape=tableRow;horizontal=0;startSize=0;swimlaneHead=0;swimlaneBody=0;fillColor=none;collapsible=0;dropTarget=0;points=[[0,0.5],[1,0.5]];portConstraint=eastwest;top=0;left=0;right=0;bottom=0;html=1;" parent="RrWgsIVMLDoqZtjO-kZ2-24" vertex="1">
          <mxGeometry y="180" width="180" height="30" as="geometry" />
        </mxCell>
        <mxCell id="RrWgsIVMLDoqZtjO-kZ2-38" value="" style="shape=partialRectangle;connectable=0;fillColor=none;top=0;left=0;bottom=0;right=0;editable=1;overflow=hidden;html=1;whiteSpace=wrap;" parent="RrWgsIVMLDoqZtjO-kZ2-37" vertex="1">
          <mxGeometry width="60" height="30" as="geometry">
            <mxRectangle width="60" height="30" as="alternateBounds" />
          </mxGeometry>
        </mxCell>
        <mxCell id="RrWgsIVMLDoqZtjO-kZ2-39" value="작성날짜" style="shape=partialRectangle;connectable=0;fillColor=none;top=0;left=0;bottom=0;right=0;align=left;spacingLeft=6;overflow=hidden;html=1;whiteSpace=wrap;" parent="RrWgsIVMLDoqZtjO-kZ2-37" vertex="1">
          <mxGeometry x="60" width="120" height="30" as="geometry">
            <mxRectangle width="120" height="30" as="alternateBounds" />
          </mxGeometry>
        </mxCell>
        <mxCell id="RrWgsIVMLDoqZtjO-kZ2-40" value="" style="shape=tableRow;horizontal=0;startSize=0;swimlaneHead=0;swimlaneBody=0;fillColor=none;collapsible=0;dropTarget=0;points=[[0,0.5],[1,0.5]];portConstraint=eastwest;top=0;left=0;right=0;bottom=0;html=1;" parent="RrWgsIVMLDoqZtjO-kZ2-24" vertex="1">
          <mxGeometry y="210" width="180" height="30" as="geometry" />
        </mxCell>
        <mxCell id="RrWgsIVMLDoqZtjO-kZ2-41" value="" style="shape=partialRectangle;connectable=0;fillColor=none;top=0;left=0;bottom=0;right=0;editable=1;overflow=hidden;html=1;whiteSpace=wrap;" parent="RrWgsIVMLDoqZtjO-kZ2-40" vertex="1">
          <mxGeometry width="60" height="30" as="geometry">
            <mxRectangle width="60" height="30" as="alternateBounds" />
          </mxGeometry>
        </mxCell>
        <mxCell id="RrWgsIVMLDoqZtjO-kZ2-42" value="마일리지" style="shape=partialRectangle;connectable=0;fillColor=none;top=0;left=0;bottom=0;right=0;align=left;spacingLeft=6;overflow=hidden;html=1;whiteSpace=wrap;" parent="RrWgsIVMLDoqZtjO-kZ2-40" vertex="1">
          <mxGeometry x="60" width="120" height="30" as="geometry">
            <mxRectangle width="120" height="30" as="alternateBounds" />
          </mxGeometry>
        </mxCell>
        <mxCell id="80NQPymvNUorhPCaU9OU-35" value="대댓글" style="shape=table;startSize=30;container=1;collapsible=1;childLayout=tableLayout;fixedRows=1;rowLines=0;fontStyle=1;align=center;resizeLast=1;html=1;whiteSpace=wrap;" parent="1" vertex="1">
          <mxGeometry x="130" y="1270" width="180" height="240" as="geometry" />
        </mxCell>
        <mxCell id="80NQPymvNUorhPCaU9OU-36" value="" style="shape=tableRow;horizontal=0;startSize=0;swimlaneHead=0;swimlaneBody=0;fillColor=none;collapsible=0;dropTarget=0;points=[[0,0.5],[1,0.5]];portConstraint=eastwest;top=0;left=0;right=0;bottom=0;html=1;" parent="80NQPymvNUorhPCaU9OU-35" vertex="1">
          <mxGeometry y="30" width="180" height="30" as="geometry" />
        </mxCell>
        <mxCell id="80NQPymvNUorhPCaU9OU-37" value="PK" style="shape=partialRectangle;connectable=0;fillColor=none;top=0;left=0;bottom=0;right=0;fontStyle=1;overflow=hidden;html=1;whiteSpace=wrap;" parent="80NQPymvNUorhPCaU9OU-36" vertex="1">
          <mxGeometry width="60" height="30" as="geometry">
            <mxRectangle width="60" height="30" as="alternateBounds" />
          </mxGeometry>
        </mxCell>
        <mxCell id="80NQPymvNUorhPCaU9OU-38" value="대댓글번호" style="shape=partialRectangle;connectable=0;fillColor=none;top=0;left=0;bottom=0;right=0;align=left;spacingLeft=6;fontStyle=5;overflow=hidden;html=1;whiteSpace=wrap;" parent="80NQPymvNUorhPCaU9OU-36" vertex="1">
          <mxGeometry x="60" width="120" height="30" as="geometry">
            <mxRectangle width="120" height="30" as="alternateBounds" />
          </mxGeometry>
        </mxCell>
        <mxCell id="80NQPymvNUorhPCaU9OU-54" value="" style="shape=tableRow;horizontal=0;startSize=0;swimlaneHead=0;swimlaneBody=0;fillColor=none;collapsible=0;dropTarget=0;points=[[0,0.5],[1,0.5]];portConstraint=eastwest;top=0;left=0;right=0;bottom=0;html=1;" parent="80NQPymvNUorhPCaU9OU-35" vertex="1">
          <mxGeometry y="60" width="180" height="30" as="geometry" />
        </mxCell>
        <mxCell id="80NQPymvNUorhPCaU9OU-55" value="FK" style="shape=partialRectangle;connectable=0;fillColor=none;top=0;left=0;bottom=0;right=0;fontStyle=1;overflow=hidden;html=1;whiteSpace=wrap;" parent="80NQPymvNUorhPCaU9OU-54" vertex="1">
          <mxGeometry width="60" height="30" as="geometry">
            <mxRectangle width="60" height="30" as="alternateBounds" />
          </mxGeometry>
        </mxCell>
        <mxCell id="80NQPymvNUorhPCaU9OU-56" value="회원코드" style="shape=partialRectangle;connectable=0;fillColor=none;top=0;left=0;bottom=0;right=0;align=left;spacingLeft=6;fontStyle=5;overflow=hidden;html=1;whiteSpace=wrap;" parent="80NQPymvNUorhPCaU9OU-54" vertex="1">
          <mxGeometry x="60" width="120" height="30" as="geometry">
            <mxRectangle width="120" height="30" as="alternateBounds" />
          </mxGeometry>
        </mxCell>
        <mxCell id="80NQPymvNUorhPCaU9OU-39" value="" style="shape=tableRow;horizontal=0;startSize=0;swimlaneHead=0;swimlaneBody=0;fillColor=none;collapsible=0;dropTarget=0;points=[[0,0.5],[1,0.5]];portConstraint=eastwest;top=0;left=0;right=0;bottom=1;html=1;" parent="80NQPymvNUorhPCaU9OU-35" vertex="1">
          <mxGeometry y="90" width="180" height="30" as="geometry" />
        </mxCell>
        <mxCell id="80NQPymvNUorhPCaU9OU-40" value="FK" style="shape=partialRectangle;connectable=0;fillColor=none;top=0;left=0;bottom=0;right=0;fontStyle=1;overflow=hidden;html=1;whiteSpace=wrap;" parent="80NQPymvNUorhPCaU9OU-39" vertex="1">
          <mxGeometry width="60" height="30" as="geometry">
            <mxRectangle width="60" height="30" as="alternateBounds" />
          </mxGeometry>
        </mxCell>
        <mxCell id="80NQPymvNUorhPCaU9OU-41" value="댓글번호" style="shape=partialRectangle;connectable=0;fillColor=none;top=0;left=0;bottom=0;right=0;align=left;spacingLeft=6;fontStyle=5;overflow=hidden;html=1;whiteSpace=wrap;" parent="80NQPymvNUorhPCaU9OU-39" vertex="1">
          <mxGeometry x="60" width="120" height="30" as="geometry">
            <mxRectangle width="120" height="30" as="alternateBounds" />
          </mxGeometry>
        </mxCell>
        <mxCell id="80NQPymvNUorhPCaU9OU-42" value="" style="shape=tableRow;horizontal=0;startSize=0;swimlaneHead=0;swimlaneBody=0;fillColor=none;collapsible=0;dropTarget=0;points=[[0,0.5],[1,0.5]];portConstraint=eastwest;top=0;left=0;right=0;bottom=0;html=1;" parent="80NQPymvNUorhPCaU9OU-35" vertex="1">
          <mxGeometry y="120" width="180" height="30" as="geometry" />
        </mxCell>
        <mxCell id="80NQPymvNUorhPCaU9OU-43" value="" style="shape=partialRectangle;connectable=0;fillColor=none;top=0;left=0;bottom=0;right=0;editable=1;overflow=hidden;html=1;whiteSpace=wrap;" parent="80NQPymvNUorhPCaU9OU-42" vertex="1">
          <mxGeometry width="60" height="30" as="geometry">
            <mxRectangle width="60" height="30" as="alternateBounds" />
          </mxGeometry>
        </mxCell>
        <mxCell id="80NQPymvNUorhPCaU9OU-44" value="작성자" style="shape=partialRectangle;connectable=0;fillColor=none;top=0;left=0;bottom=0;right=0;align=left;spacingLeft=6;overflow=hidden;html=1;whiteSpace=wrap;" parent="80NQPymvNUorhPCaU9OU-42" vertex="1">
          <mxGeometry x="60" width="120" height="30" as="geometry">
            <mxRectangle width="120" height="30" as="alternateBounds" />
          </mxGeometry>
        </mxCell>
        <mxCell id="80NQPymvNUorhPCaU9OU-45" value="" style="shape=tableRow;horizontal=0;startSize=0;swimlaneHead=0;swimlaneBody=0;fillColor=none;collapsible=0;dropTarget=0;points=[[0,0.5],[1,0.5]];portConstraint=eastwest;top=0;left=0;right=0;bottom=0;html=1;" parent="80NQPymvNUorhPCaU9OU-35" vertex="1">
          <mxGeometry y="150" width="180" height="30" as="geometry" />
        </mxCell>
        <mxCell id="80NQPymvNUorhPCaU9OU-46" value="" style="shape=partialRectangle;connectable=0;fillColor=none;top=0;left=0;bottom=0;right=0;editable=1;overflow=hidden;html=1;whiteSpace=wrap;" parent="80NQPymvNUorhPCaU9OU-45" vertex="1">
          <mxGeometry width="60" height="30" as="geometry">
            <mxRectangle width="60" height="30" as="alternateBounds" />
          </mxGeometry>
        </mxCell>
        <mxCell id="80NQPymvNUorhPCaU9OU-47" value="내용" style="shape=partialRectangle;connectable=0;fillColor=none;top=0;left=0;bottom=0;right=0;align=left;spacingLeft=6;overflow=hidden;html=1;whiteSpace=wrap;" parent="80NQPymvNUorhPCaU9OU-45" vertex="1">
          <mxGeometry x="60" width="120" height="30" as="geometry">
            <mxRectangle width="120" height="30" as="alternateBounds" />
          </mxGeometry>
        </mxCell>
        <mxCell id="80NQPymvNUorhPCaU9OU-48" value="" style="shape=tableRow;horizontal=0;startSize=0;swimlaneHead=0;swimlaneBody=0;fillColor=none;collapsible=0;dropTarget=0;points=[[0,0.5],[1,0.5]];portConstraint=eastwest;top=0;left=0;right=0;bottom=0;html=1;" parent="80NQPymvNUorhPCaU9OU-35" vertex="1">
          <mxGeometry y="180" width="180" height="30" as="geometry" />
        </mxCell>
        <mxCell id="80NQPymvNUorhPCaU9OU-49" value="" style="shape=partialRectangle;connectable=0;fillColor=none;top=0;left=0;bottom=0;right=0;editable=1;overflow=hidden;html=1;whiteSpace=wrap;" parent="80NQPymvNUorhPCaU9OU-48" vertex="1">
          <mxGeometry width="60" height="30" as="geometry">
            <mxRectangle width="60" height="30" as="alternateBounds" />
          </mxGeometry>
        </mxCell>
        <mxCell id="80NQPymvNUorhPCaU9OU-50" value="작성일" style="shape=partialRectangle;connectable=0;fillColor=none;top=0;left=0;bottom=0;right=0;align=left;spacingLeft=6;overflow=hidden;html=1;whiteSpace=wrap;" parent="80NQPymvNUorhPCaU9OU-48" vertex="1">
          <mxGeometry x="60" width="120" height="30" as="geometry">
            <mxRectangle width="120" height="30" as="alternateBounds" />
          </mxGeometry>
        </mxCell>
        <mxCell id="80NQPymvNUorhPCaU9OU-51" value="" style="shape=tableRow;horizontal=0;startSize=0;swimlaneHead=0;swimlaneBody=0;fillColor=none;collapsible=0;dropTarget=0;points=[[0,0.5],[1,0.5]];portConstraint=eastwest;top=0;left=0;right=0;bottom=0;html=1;" parent="80NQPymvNUorhPCaU9OU-35" vertex="1">
          <mxGeometry y="210" width="180" height="30" as="geometry" />
        </mxCell>
        <mxCell id="80NQPymvNUorhPCaU9OU-52" value="" style="shape=partialRectangle;connectable=0;fillColor=none;top=0;left=0;bottom=0;right=0;editable=1;overflow=hidden;html=1;whiteSpace=wrap;" parent="80NQPymvNUorhPCaU9OU-51" vertex="1">
          <mxGeometry width="60" height="30" as="geometry">
            <mxRectangle width="60" height="30" as="alternateBounds" />
          </mxGeometry>
        </mxCell>
        <mxCell id="80NQPymvNUorhPCaU9OU-53" value="추천수?" style="shape=partialRectangle;connectable=0;fillColor=none;top=0;left=0;bottom=0;right=0;align=left;spacingLeft=6;overflow=hidden;html=1;whiteSpace=wrap;" parent="80NQPymvNUorhPCaU9OU-51" vertex="1">
          <mxGeometry x="60" width="120" height="30" as="geometry">
            <mxRectangle width="120" height="30" as="alternateBounds" />
          </mxGeometry>
        </mxCell>
        <mxCell id="LMQ02I74BKlt0l7zJlYX-26" value="영화" style="shape=table;startSize=30;container=1;collapsible=1;childLayout=tableLayout;fixedRows=1;rowLines=0;fontStyle=1;align=center;resizeLast=1;html=1;whiteSpace=wrap;" parent="1" vertex="1">
          <mxGeometry x="1460" y="1520" width="180" height="180" as="geometry" />
        </mxCell>
        <mxCell id="LMQ02I74BKlt0l7zJlYX-27" value="" style="shape=tableRow;horizontal=0;startSize=0;swimlaneHead=0;swimlaneBody=0;fillColor=none;collapsible=0;dropTarget=0;points=[[0,0.5],[1,0.5]];portConstraint=eastwest;top=0;left=0;right=0;bottom=0;html=1;" parent="LMQ02I74BKlt0l7zJlYX-26" vertex="1">
          <mxGeometry y="30" width="180" height="30" as="geometry" />
        </mxCell>
        <mxCell id="LMQ02I74BKlt0l7zJlYX-28" value="PK" style="shape=partialRectangle;connectable=0;fillColor=none;top=0;left=0;bottom=0;right=0;fontStyle=1;overflow=hidden;html=1;whiteSpace=wrap;" parent="LMQ02I74BKlt0l7zJlYX-27" vertex="1">
          <mxGeometry width="60" height="30" as="geometry">
            <mxRectangle width="60" height="30" as="alternateBounds" />
          </mxGeometry>
        </mxCell>
        <mxCell id="LMQ02I74BKlt0l7zJlYX-29" value="콘텐츠코드" style="shape=partialRectangle;connectable=0;fillColor=none;top=0;left=0;bottom=0;right=0;align=left;spacingLeft=6;fontStyle=5;overflow=hidden;html=1;whiteSpace=wrap;" parent="LMQ02I74BKlt0l7zJlYX-27" vertex="1">
          <mxGeometry x="60" width="120" height="30" as="geometry">
            <mxRectangle width="120" height="30" as="alternateBounds" />
          </mxGeometry>
        </mxCell>
        <mxCell id="LMQ02I74BKlt0l7zJlYX-33" value="" style="shape=tableRow;horizontal=0;startSize=0;swimlaneHead=0;swimlaneBody=0;fillColor=none;collapsible=0;dropTarget=0;points=[[0,0.5],[1,0.5]];portConstraint=eastwest;top=0;left=0;right=0;bottom=0;html=1;" parent="LMQ02I74BKlt0l7zJlYX-26" vertex="1">
          <mxGeometry y="60" width="180" height="30" as="geometry" />
        </mxCell>
        <mxCell id="LMQ02I74BKlt0l7zJlYX-34" value="" style="shape=partialRectangle;connectable=0;fillColor=none;top=0;left=0;bottom=0;right=0;editable=1;overflow=hidden;html=1;whiteSpace=wrap;" parent="LMQ02I74BKlt0l7zJlYX-33" vertex="1">
          <mxGeometry width="60" height="30" as="geometry">
            <mxRectangle width="60" height="30" as="alternateBounds" />
          </mxGeometry>
        </mxCell>
        <mxCell id="LMQ02I74BKlt0l7zJlYX-35" value="영화명" style="shape=partialRectangle;connectable=0;fillColor=none;top=0;left=0;bottom=0;right=0;align=left;spacingLeft=6;overflow=hidden;html=1;whiteSpace=wrap;" parent="LMQ02I74BKlt0l7zJlYX-33" vertex="1">
          <mxGeometry x="60" width="120" height="30" as="geometry">
            <mxRectangle width="120" height="30" as="alternateBounds" />
          </mxGeometry>
        </mxCell>
        <mxCell id="LMQ02I74BKlt0l7zJlYX-36" value="" style="shape=tableRow;horizontal=0;startSize=0;swimlaneHead=0;swimlaneBody=0;fillColor=none;collapsible=0;dropTarget=0;points=[[0,0.5],[1,0.5]];portConstraint=eastwest;top=0;left=0;right=0;bottom=0;html=1;" parent="LMQ02I74BKlt0l7zJlYX-26" vertex="1">
          <mxGeometry y="90" width="180" height="30" as="geometry" />
        </mxCell>
        <mxCell id="LMQ02I74BKlt0l7zJlYX-37" value="" style="shape=partialRectangle;connectable=0;fillColor=none;top=0;left=0;bottom=0;right=0;editable=1;overflow=hidden;html=1;whiteSpace=wrap;" parent="LMQ02I74BKlt0l7zJlYX-36" vertex="1">
          <mxGeometry width="60" height="30" as="geometry">
            <mxRectangle width="60" height="30" as="alternateBounds" />
          </mxGeometry>
        </mxCell>
        <mxCell id="LMQ02I74BKlt0l7zJlYX-38" value="감독" style="shape=partialRectangle;connectable=0;fillColor=none;top=0;left=0;bottom=0;right=0;align=left;spacingLeft=6;overflow=hidden;html=1;whiteSpace=wrap;" parent="LMQ02I74BKlt0l7zJlYX-36" vertex="1">
          <mxGeometry x="60" width="120" height="30" as="geometry">
            <mxRectangle width="120" height="30" as="alternateBounds" />
          </mxGeometry>
        </mxCell>
        <mxCell id="LMQ02I74BKlt0l7zJlYX-39" value="" style="shape=tableRow;horizontal=0;startSize=0;swimlaneHead=0;swimlaneBody=0;fillColor=none;collapsible=0;dropTarget=0;points=[[0,0.5],[1,0.5]];portConstraint=eastwest;top=0;left=0;right=0;bottom=0;html=1;" parent="LMQ02I74BKlt0l7zJlYX-26" vertex="1">
          <mxGeometry y="120" width="180" height="30" as="geometry" />
        </mxCell>
        <mxCell id="LMQ02I74BKlt0l7zJlYX-40" value="" style="shape=partialRectangle;connectable=0;fillColor=none;top=0;left=0;bottom=0;right=0;editable=1;overflow=hidden;html=1;whiteSpace=wrap;" parent="LMQ02I74BKlt0l7zJlYX-39" vertex="1">
          <mxGeometry width="60" height="30" as="geometry">
            <mxRectangle width="60" height="30" as="alternateBounds" />
          </mxGeometry>
        </mxCell>
        <mxCell id="LMQ02I74BKlt0l7zJlYX-41" value="배우" style="shape=partialRectangle;connectable=0;fillColor=none;top=0;left=0;bottom=0;right=0;align=left;spacingLeft=6;overflow=hidden;html=1;whiteSpace=wrap;" parent="LMQ02I74BKlt0l7zJlYX-39" vertex="1">
          <mxGeometry x="60" width="120" height="30" as="geometry">
            <mxRectangle width="120" height="30" as="alternateBounds" />
          </mxGeometry>
        </mxCell>
        <mxCell id="LMQ02I74BKlt0l7zJlYX-42" value="" style="shape=tableRow;horizontal=0;startSize=0;swimlaneHead=0;swimlaneBody=0;fillColor=none;collapsible=0;dropTarget=0;points=[[0,0.5],[1,0.5]];portConstraint=eastwest;top=0;left=0;right=0;bottom=0;html=1;" parent="LMQ02I74BKlt0l7zJlYX-26" vertex="1">
          <mxGeometry y="150" width="180" height="30" as="geometry" />
        </mxCell>
        <mxCell id="LMQ02I74BKlt0l7zJlYX-43" value="" style="shape=partialRectangle;connectable=0;fillColor=none;top=0;left=0;bottom=0;right=0;editable=1;overflow=hidden;html=1;whiteSpace=wrap;" parent="LMQ02I74BKlt0l7zJlYX-42" vertex="1">
          <mxGeometry width="60" height="30" as="geometry">
            <mxRectangle width="60" height="30" as="alternateBounds" />
          </mxGeometry>
        </mxCell>
        <mxCell id="LMQ02I74BKlt0l7zJlYX-44" value="줄거리" style="shape=partialRectangle;connectable=0;fillColor=none;top=0;left=0;bottom=0;right=0;align=left;spacingLeft=6;overflow=hidden;html=1;whiteSpace=wrap;" parent="LMQ02I74BKlt0l7zJlYX-42" vertex="1">
          <mxGeometry x="60" width="120" height="30" as="geometry">
            <mxRectangle width="120" height="30" as="alternateBounds" />
          </mxGeometry>
        </mxCell>
        <mxCell id="LMQ02I74BKlt0l7zJlYX-64" value="게임" style="shape=table;startSize=30;container=1;collapsible=1;childLayout=tableLayout;fixedRows=1;rowLines=0;fontStyle=1;align=center;resizeLast=1;html=1;whiteSpace=wrap;" parent="1" vertex="1">
          <mxGeometry x="1180" y="1520" width="180" height="180" as="geometry" />
        </mxCell>
        <mxCell id="LMQ02I74BKlt0l7zJlYX-65" value="" style="shape=tableRow;horizontal=0;startSize=0;swimlaneHead=0;swimlaneBody=0;fillColor=none;collapsible=0;dropTarget=0;points=[[0,0.5],[1,0.5]];portConstraint=eastwest;top=0;left=0;right=0;bottom=0;html=1;" parent="LMQ02I74BKlt0l7zJlYX-64" vertex="1">
          <mxGeometry y="30" width="180" height="30" as="geometry" />
        </mxCell>
        <mxCell id="LMQ02I74BKlt0l7zJlYX-66" value="PK" style="shape=partialRectangle;connectable=0;fillColor=none;top=0;left=0;bottom=0;right=0;fontStyle=1;overflow=hidden;html=1;whiteSpace=wrap;" parent="LMQ02I74BKlt0l7zJlYX-65" vertex="1">
          <mxGeometry width="60" height="30" as="geometry">
            <mxRectangle width="60" height="30" as="alternateBounds" />
          </mxGeometry>
        </mxCell>
        <mxCell id="LMQ02I74BKlt0l7zJlYX-67" value="콘텐츠코드" style="shape=partialRectangle;connectable=0;fillColor=none;top=0;left=0;bottom=0;right=0;align=left;spacingLeft=6;fontStyle=5;overflow=hidden;html=1;whiteSpace=wrap;" parent="LMQ02I74BKlt0l7zJlYX-65" vertex="1">
          <mxGeometry x="60" width="120" height="30" as="geometry">
            <mxRectangle width="120" height="30" as="alternateBounds" />
          </mxGeometry>
        </mxCell>
        <mxCell id="LMQ02I74BKlt0l7zJlYX-71" value="" style="shape=tableRow;horizontal=0;startSize=0;swimlaneHead=0;swimlaneBody=0;fillColor=none;collapsible=0;dropTarget=0;points=[[0,0.5],[1,0.5]];portConstraint=eastwest;top=0;left=0;right=0;bottom=0;html=1;" parent="LMQ02I74BKlt0l7zJlYX-64" vertex="1">
          <mxGeometry y="60" width="180" height="30" as="geometry" />
        </mxCell>
        <mxCell id="LMQ02I74BKlt0l7zJlYX-72" value="" style="shape=partialRectangle;connectable=0;fillColor=none;top=0;left=0;bottom=0;right=0;editable=1;overflow=hidden;html=1;whiteSpace=wrap;" parent="LMQ02I74BKlt0l7zJlYX-71" vertex="1">
          <mxGeometry width="60" height="30" as="geometry">
            <mxRectangle width="60" height="30" as="alternateBounds" />
          </mxGeometry>
        </mxCell>
        <mxCell id="LMQ02I74BKlt0l7zJlYX-73" value="게임명" style="shape=partialRectangle;connectable=0;fillColor=none;top=0;left=0;bottom=0;right=0;align=left;spacingLeft=6;overflow=hidden;html=1;whiteSpace=wrap;" parent="LMQ02I74BKlt0l7zJlYX-71" vertex="1">
          <mxGeometry x="60" width="120" height="30" as="geometry">
            <mxRectangle width="120" height="30" as="alternateBounds" />
          </mxGeometry>
        </mxCell>
        <mxCell id="LMQ02I74BKlt0l7zJlYX-74" value="" style="shape=tableRow;horizontal=0;startSize=0;swimlaneHead=0;swimlaneBody=0;fillColor=none;collapsible=0;dropTarget=0;points=[[0,0.5],[1,0.5]];portConstraint=eastwest;top=0;left=0;right=0;bottom=0;html=1;" parent="LMQ02I74BKlt0l7zJlYX-64" vertex="1">
          <mxGeometry y="90" width="180" height="30" as="geometry" />
        </mxCell>
        <mxCell id="LMQ02I74BKlt0l7zJlYX-75" value="" style="shape=partialRectangle;connectable=0;fillColor=none;top=0;left=0;bottom=0;right=0;editable=1;overflow=hidden;html=1;whiteSpace=wrap;" parent="LMQ02I74BKlt0l7zJlYX-74" vertex="1">
          <mxGeometry width="60" height="30" as="geometry">
            <mxRectangle width="60" height="30" as="alternateBounds" />
          </mxGeometry>
        </mxCell>
        <mxCell id="LMQ02I74BKlt0l7zJlYX-76" value="개발사" style="shape=partialRectangle;connectable=0;fillColor=none;top=0;left=0;bottom=0;right=0;align=left;spacingLeft=6;overflow=hidden;html=1;whiteSpace=wrap;" parent="LMQ02I74BKlt0l7zJlYX-74" vertex="1">
          <mxGeometry x="60" width="120" height="30" as="geometry">
            <mxRectangle width="120" height="30" as="alternateBounds" />
          </mxGeometry>
        </mxCell>
        <mxCell id="LMQ02I74BKlt0l7zJlYX-77" value="" style="shape=tableRow;horizontal=0;startSize=0;swimlaneHead=0;swimlaneBody=0;fillColor=none;collapsible=0;dropTarget=0;points=[[0,0.5],[1,0.5]];portConstraint=eastwest;top=0;left=0;right=0;bottom=0;html=1;" parent="LMQ02I74BKlt0l7zJlYX-64" vertex="1">
          <mxGeometry y="120" width="180" height="30" as="geometry" />
        </mxCell>
        <mxCell id="LMQ02I74BKlt0l7zJlYX-78" value="" style="shape=partialRectangle;connectable=0;fillColor=none;top=0;left=0;bottom=0;right=0;editable=1;overflow=hidden;html=1;whiteSpace=wrap;" parent="LMQ02I74BKlt0l7zJlYX-77" vertex="1">
          <mxGeometry width="60" height="30" as="geometry">
            <mxRectangle width="60" height="30" as="alternateBounds" />
          </mxGeometry>
        </mxCell>
        <mxCell id="LMQ02I74BKlt0l7zJlYX-79" value="플랫폼" style="shape=partialRectangle;connectable=0;fillColor=none;top=0;left=0;bottom=0;right=0;align=left;spacingLeft=6;overflow=hidden;html=1;whiteSpace=wrap;" parent="LMQ02I74BKlt0l7zJlYX-77" vertex="1">
          <mxGeometry x="60" width="120" height="30" as="geometry">
            <mxRectangle width="120" height="30" as="alternateBounds" />
          </mxGeometry>
        </mxCell>
        <mxCell id="LMQ02I74BKlt0l7zJlYX-80" value="" style="shape=tableRow;horizontal=0;startSize=0;swimlaneHead=0;swimlaneBody=0;fillColor=none;collapsible=0;dropTarget=0;points=[[0,0.5],[1,0.5]];portConstraint=eastwest;top=0;left=0;right=0;bottom=0;html=1;" parent="LMQ02I74BKlt0l7zJlYX-64" vertex="1">
          <mxGeometry y="150" width="180" height="30" as="geometry" />
        </mxCell>
        <mxCell id="LMQ02I74BKlt0l7zJlYX-81" value="" style="shape=partialRectangle;connectable=0;fillColor=none;top=0;left=0;bottom=0;right=0;editable=1;overflow=hidden;html=1;whiteSpace=wrap;" parent="LMQ02I74BKlt0l7zJlYX-80" vertex="1">
          <mxGeometry width="60" height="30" as="geometry">
            <mxRectangle width="60" height="30" as="alternateBounds" />
          </mxGeometry>
        </mxCell>
        <mxCell id="LMQ02I74BKlt0l7zJlYX-82" value="가격" style="shape=partialRectangle;connectable=0;fillColor=none;top=0;left=0;bottom=0;right=0;align=left;spacingLeft=6;overflow=hidden;html=1;whiteSpace=wrap;" parent="LMQ02I74BKlt0l7zJlYX-80" vertex="1">
          <mxGeometry x="60" width="120" height="30" as="geometry">
            <mxRectangle width="120" height="30" as="alternateBounds" />
          </mxGeometry>
        </mxCell>
        <mxCell id="LMQ02I74BKlt0l7zJlYX-83" value="웹툰" style="shape=table;startSize=30;container=1;collapsible=1;childLayout=tableLayout;fixedRows=1;rowLines=0;fontStyle=1;align=center;resizeLast=1;html=1;whiteSpace=wrap;" parent="1" vertex="1">
          <mxGeometry x="900" y="1520" width="180" height="180" as="geometry" />
        </mxCell>
        <mxCell id="LMQ02I74BKlt0l7zJlYX-84" value="" style="shape=tableRow;horizontal=0;startSize=0;swimlaneHead=0;swimlaneBody=0;fillColor=none;collapsible=0;dropTarget=0;points=[[0,0.5],[1,0.5]];portConstraint=eastwest;top=0;left=0;right=0;bottom=0;html=1;" parent="LMQ02I74BKlt0l7zJlYX-83" vertex="1">
          <mxGeometry y="30" width="180" height="30" as="geometry" />
        </mxCell>
        <mxCell id="LMQ02I74BKlt0l7zJlYX-85" value="PK" style="shape=partialRectangle;connectable=0;fillColor=none;top=0;left=0;bottom=0;right=0;fontStyle=1;overflow=hidden;html=1;whiteSpace=wrap;" parent="LMQ02I74BKlt0l7zJlYX-84" vertex="1">
          <mxGeometry width="60" height="30" as="geometry">
            <mxRectangle width="60" height="30" as="alternateBounds" />
          </mxGeometry>
        </mxCell>
        <mxCell id="LMQ02I74BKlt0l7zJlYX-86" value="콘텐츠코드" style="shape=partialRectangle;connectable=0;fillColor=none;top=0;left=0;bottom=0;right=0;align=left;spacingLeft=6;fontStyle=5;overflow=hidden;html=1;whiteSpace=wrap;" parent="LMQ02I74BKlt0l7zJlYX-84" vertex="1">
          <mxGeometry x="60" width="120" height="30" as="geometry">
            <mxRectangle width="120" height="30" as="alternateBounds" />
          </mxGeometry>
        </mxCell>
        <mxCell id="LMQ02I74BKlt0l7zJlYX-90" value="" style="shape=tableRow;horizontal=0;startSize=0;swimlaneHead=0;swimlaneBody=0;fillColor=none;collapsible=0;dropTarget=0;points=[[0,0.5],[1,0.5]];portConstraint=eastwest;top=0;left=0;right=0;bottom=0;html=1;" parent="LMQ02I74BKlt0l7zJlYX-83" vertex="1">
          <mxGeometry y="60" width="180" height="30" as="geometry" />
        </mxCell>
        <mxCell id="LMQ02I74BKlt0l7zJlYX-91" value="" style="shape=partialRectangle;connectable=0;fillColor=none;top=0;left=0;bottom=0;right=0;editable=1;overflow=hidden;html=1;whiteSpace=wrap;" parent="LMQ02I74BKlt0l7zJlYX-90" vertex="1">
          <mxGeometry width="60" height="30" as="geometry">
            <mxRectangle width="60" height="30" as="alternateBounds" />
          </mxGeometry>
        </mxCell>
        <mxCell id="LMQ02I74BKlt0l7zJlYX-92" value="웹툰명" style="shape=partialRectangle;connectable=0;fillColor=none;top=0;left=0;bottom=0;right=0;align=left;spacingLeft=6;overflow=hidden;html=1;whiteSpace=wrap;" parent="LMQ02I74BKlt0l7zJlYX-90" vertex="1">
          <mxGeometry x="60" width="120" height="30" as="geometry">
            <mxRectangle width="120" height="30" as="alternateBounds" />
          </mxGeometry>
        </mxCell>
        <mxCell id="LMQ02I74BKlt0l7zJlYX-93" value="" style="shape=tableRow;horizontal=0;startSize=0;swimlaneHead=0;swimlaneBody=0;fillColor=none;collapsible=0;dropTarget=0;points=[[0,0.5],[1,0.5]];portConstraint=eastwest;top=0;left=0;right=0;bottom=0;html=1;" parent="LMQ02I74BKlt0l7zJlYX-83" vertex="1">
          <mxGeometry y="90" width="180" height="30" as="geometry" />
        </mxCell>
        <mxCell id="LMQ02I74BKlt0l7zJlYX-94" value="" style="shape=partialRectangle;connectable=0;fillColor=none;top=0;left=0;bottom=0;right=0;editable=1;overflow=hidden;html=1;whiteSpace=wrap;" parent="LMQ02I74BKlt0l7zJlYX-93" vertex="1">
          <mxGeometry width="60" height="30" as="geometry">
            <mxRectangle width="60" height="30" as="alternateBounds" />
          </mxGeometry>
        </mxCell>
        <mxCell id="LMQ02I74BKlt0l7zJlYX-95" value="작가" style="shape=partialRectangle;connectable=0;fillColor=none;top=0;left=0;bottom=0;right=0;align=left;spacingLeft=6;overflow=hidden;html=1;whiteSpace=wrap;" parent="LMQ02I74BKlt0l7zJlYX-93" vertex="1">
          <mxGeometry x="60" width="120" height="30" as="geometry">
            <mxRectangle width="120" height="30" as="alternateBounds" />
          </mxGeometry>
        </mxCell>
        <mxCell id="LMQ02I74BKlt0l7zJlYX-96" value="" style="shape=tableRow;horizontal=0;startSize=0;swimlaneHead=0;swimlaneBody=0;fillColor=none;collapsible=0;dropTarget=0;points=[[0,0.5],[1,0.5]];portConstraint=eastwest;top=0;left=0;right=0;bottom=0;html=1;" parent="LMQ02I74BKlt0l7zJlYX-83" vertex="1">
          <mxGeometry y="120" width="180" height="30" as="geometry" />
        </mxCell>
        <mxCell id="LMQ02I74BKlt0l7zJlYX-97" value="" style="shape=partialRectangle;connectable=0;fillColor=none;top=0;left=0;bottom=0;right=0;editable=1;overflow=hidden;html=1;whiteSpace=wrap;" parent="LMQ02I74BKlt0l7zJlYX-96" vertex="1">
          <mxGeometry width="60" height="30" as="geometry">
            <mxRectangle width="60" height="30" as="alternateBounds" />
          </mxGeometry>
        </mxCell>
        <mxCell id="LMQ02I74BKlt0l7zJlYX-98" value="줄거리" style="shape=partialRectangle;connectable=0;fillColor=none;top=0;left=0;bottom=0;right=0;align=left;spacingLeft=6;overflow=hidden;html=1;whiteSpace=wrap;" parent="LMQ02I74BKlt0l7zJlYX-96" vertex="1">
          <mxGeometry x="60" width="120" height="30" as="geometry">
            <mxRectangle width="120" height="30" as="alternateBounds" />
          </mxGeometry>
        </mxCell>
        <mxCell id="LMQ02I74BKlt0l7zJlYX-99" value="" style="shape=tableRow;horizontal=0;startSize=0;swimlaneHead=0;swimlaneBody=0;fillColor=none;collapsible=0;dropTarget=0;points=[[0,0.5],[1,0.5]];portConstraint=eastwest;top=0;left=0;right=0;bottom=0;html=1;" parent="LMQ02I74BKlt0l7zJlYX-83" vertex="1">
          <mxGeometry y="150" width="180" height="30" as="geometry" />
        </mxCell>
        <mxCell id="LMQ02I74BKlt0l7zJlYX-100" value="" style="shape=partialRectangle;connectable=0;fillColor=none;top=0;left=0;bottom=0;right=0;editable=1;overflow=hidden;html=1;whiteSpace=wrap;" parent="LMQ02I74BKlt0l7zJlYX-99" vertex="1">
          <mxGeometry width="60" height="30" as="geometry">
            <mxRectangle width="60" height="30" as="alternateBounds" />
          </mxGeometry>
        </mxCell>
        <mxCell id="LMQ02I74BKlt0l7zJlYX-101" value="플랫폼" style="shape=partialRectangle;connectable=0;fillColor=none;top=0;left=0;bottom=0;right=0;align=left;spacingLeft=6;overflow=hidden;html=1;whiteSpace=wrap;" parent="LMQ02I74BKlt0l7zJlYX-99" vertex="1">
          <mxGeometry x="60" width="120" height="30" as="geometry">
            <mxRectangle width="120" height="30" as="alternateBounds" />
          </mxGeometry>
        </mxCell>
        <mxCell id="FPBOpDGFrzUPkEcTZleV-37" value="장르" style="shape=table;startSize=30;container=1;collapsible=1;childLayout=tableLayout;fixedRows=1;rowLines=0;fontStyle=1;align=center;resizeLast=1;html=1;" parent="1" vertex="1">
          <mxGeometry x="1210" y="920" width="180" height="120" as="geometry" />
        </mxCell>
        <mxCell id="FPBOpDGFrzUPkEcTZleV-38" value="" style="shape=tableRow;horizontal=0;startSize=0;swimlaneHead=0;swimlaneBody=0;fillColor=none;collapsible=0;dropTarget=0;points=[[0,0.5],[1,0.5]];portConstraint=eastwest;top=0;left=0;right=0;bottom=1;" parent="FPBOpDGFrzUPkEcTZleV-37" vertex="1">
          <mxGeometry y="30" width="180" height="30" as="geometry" />
        </mxCell>
        <mxCell id="FPBOpDGFrzUPkEcTZleV-39" value="PK" style="shape=partialRectangle;connectable=0;fillColor=none;top=0;left=0;bottom=0;right=0;fontStyle=1;overflow=hidden;whiteSpace=wrap;html=1;" parent="FPBOpDGFrzUPkEcTZleV-38" vertex="1">
          <mxGeometry width="30" height="30" as="geometry">
            <mxRectangle width="30" height="30" as="alternateBounds" />
          </mxGeometry>
        </mxCell>
        <mxCell id="FPBOpDGFrzUPkEcTZleV-40" value="장르코드" style="shape=partialRectangle;connectable=0;fillColor=none;top=0;left=0;bottom=0;right=0;align=left;spacingLeft=6;fontStyle=5;overflow=hidden;whiteSpace=wrap;html=1;" parent="FPBOpDGFrzUPkEcTZleV-38" vertex="1">
          <mxGeometry x="30" width="150" height="30" as="geometry">
            <mxRectangle width="150" height="30" as="alternateBounds" />
          </mxGeometry>
        </mxCell>
        <mxCell id="FPBOpDGFrzUPkEcTZleV-41" value="" style="shape=tableRow;horizontal=0;startSize=0;swimlaneHead=0;swimlaneBody=0;fillColor=none;collapsible=0;dropTarget=0;points=[[0,0.5],[1,0.5]];portConstraint=eastwest;top=0;left=0;right=0;bottom=0;" parent="FPBOpDGFrzUPkEcTZleV-37" vertex="1">
          <mxGeometry y="60" width="180" height="30" as="geometry" />
        </mxCell>
        <mxCell id="FPBOpDGFrzUPkEcTZleV-42" value="" style="shape=partialRectangle;connectable=0;fillColor=none;top=0;left=0;bottom=0;right=0;editable=1;overflow=hidden;whiteSpace=wrap;html=1;" parent="FPBOpDGFrzUPkEcTZleV-41" vertex="1">
          <mxGeometry width="30" height="30" as="geometry">
            <mxRectangle width="30" height="30" as="alternateBounds" />
          </mxGeometry>
        </mxCell>
        <mxCell id="FPBOpDGFrzUPkEcTZleV-43" value="콘텐츠 종류" style="shape=partialRectangle;connectable=0;fillColor=none;top=0;left=0;bottom=0;right=0;align=left;spacingLeft=6;overflow=hidden;whiteSpace=wrap;html=1;" parent="FPBOpDGFrzUPkEcTZleV-41" vertex="1">
          <mxGeometry x="30" width="150" height="30" as="geometry">
            <mxRectangle width="150" height="30" as="alternateBounds" />
          </mxGeometry>
        </mxCell>
        <mxCell id="FPBOpDGFrzUPkEcTZleV-44" value="" style="shape=tableRow;horizontal=0;startSize=0;swimlaneHead=0;swimlaneBody=0;fillColor=none;collapsible=0;dropTarget=0;points=[[0,0.5],[1,0.5]];portConstraint=eastwest;top=0;left=0;right=0;bottom=0;" parent="FPBOpDGFrzUPkEcTZleV-37" vertex="1">
          <mxGeometry y="90" width="180" height="30" as="geometry" />
        </mxCell>
        <mxCell id="FPBOpDGFrzUPkEcTZleV-45" value="" style="shape=partialRectangle;connectable=0;fillColor=none;top=0;left=0;bottom=0;right=0;editable=1;overflow=hidden;whiteSpace=wrap;html=1;" parent="FPBOpDGFrzUPkEcTZleV-44" vertex="1">
          <mxGeometry width="30" height="30" as="geometry">
            <mxRectangle width="30" height="30" as="alternateBounds" />
          </mxGeometry>
        </mxCell>
        <mxCell id="FPBOpDGFrzUPkEcTZleV-46" value="장르명" style="shape=partialRectangle;connectable=0;fillColor=none;top=0;left=0;bottom=0;right=0;align=left;spacingLeft=6;overflow=hidden;whiteSpace=wrap;html=1;" parent="FPBOpDGFrzUPkEcTZleV-44" vertex="1">
          <mxGeometry x="30" width="150" height="30" as="geometry">
            <mxRectangle width="150" height="30" as="alternateBounds" />
          </mxGeometry>
        </mxCell>
        <mxCell id="FPBOpDGFrzUPkEcTZleV-53" value="유저 취향" style="shape=table;startSize=30;container=1;collapsible=1;childLayout=tableLayout;fixedRows=1;rowLines=0;fontStyle=1;align=center;resizeLast=1;html=1;whiteSpace=wrap;" parent="1" vertex="1">
          <mxGeometry x="890" y="890" width="180" height="120" as="geometry" />
        </mxCell>
        <mxCell id="FPBOpDGFrzUPkEcTZleV-54" value="" style="shape=tableRow;horizontal=0;startSize=0;swimlaneHead=0;swimlaneBody=0;fillColor=none;collapsible=0;dropTarget=0;points=[[0,0.5],[1,0.5]];portConstraint=eastwest;top=0;left=0;right=0;bottom=0;html=1;" parent="FPBOpDGFrzUPkEcTZleV-53" vertex="1">
          <mxGeometry y="30" width="180" height="30" as="geometry" />
        </mxCell>
        <mxCell id="FPBOpDGFrzUPkEcTZleV-55" value="PK" style="shape=partialRectangle;connectable=0;fillColor=none;top=0;left=0;bottom=0;right=0;fontStyle=1;overflow=hidden;html=1;whiteSpace=wrap;" parent="FPBOpDGFrzUPkEcTZleV-54" vertex="1">
          <mxGeometry width="60" height="30" as="geometry">
            <mxRectangle width="60" height="30" as="alternateBounds" />
          </mxGeometry>
        </mxCell>
        <mxCell id="FPBOpDGFrzUPkEcTZleV-56" value="번호" style="shape=partialRectangle;connectable=0;fillColor=none;top=0;left=0;bottom=0;right=0;align=left;spacingLeft=6;fontStyle=5;overflow=hidden;html=1;whiteSpace=wrap;" parent="FPBOpDGFrzUPkEcTZleV-54" vertex="1">
          <mxGeometry x="60" width="120" height="30" as="geometry">
            <mxRectangle width="120" height="30" as="alternateBounds" />
          </mxGeometry>
        </mxCell>
        <mxCell id="FPBOpDGFrzUPkEcTZleV-75" value="" style="shape=tableRow;horizontal=0;startSize=0;swimlaneHead=0;swimlaneBody=0;fillColor=none;collapsible=0;dropTarget=0;points=[[0,0.5],[1,0.5]];portConstraint=eastwest;top=0;left=0;right=0;bottom=0;html=1;" parent="FPBOpDGFrzUPkEcTZleV-53" vertex="1">
          <mxGeometry y="60" width="180" height="30" as="geometry" />
        </mxCell>
        <mxCell id="FPBOpDGFrzUPkEcTZleV-76" value="FK" style="shape=partialRectangle;connectable=0;fillColor=none;top=0;left=0;bottom=0;right=0;fontStyle=1;overflow=hidden;html=1;whiteSpace=wrap;" parent="FPBOpDGFrzUPkEcTZleV-75" vertex="1">
          <mxGeometry width="60" height="30" as="geometry">
            <mxRectangle width="60" height="30" as="alternateBounds" />
          </mxGeometry>
        </mxCell>
        <mxCell id="FPBOpDGFrzUPkEcTZleV-77" value="장르코드" style="shape=partialRectangle;connectable=0;fillColor=none;top=0;left=0;bottom=0;right=0;align=left;spacingLeft=6;fontStyle=5;overflow=hidden;html=1;whiteSpace=wrap;" parent="FPBOpDGFrzUPkEcTZleV-75" vertex="1">
          <mxGeometry x="60" width="120" height="30" as="geometry">
            <mxRectangle width="120" height="30" as="alternateBounds" />
          </mxGeometry>
        </mxCell>
        <mxCell id="FPBOpDGFrzUPkEcTZleV-57" value="" style="shape=tableRow;horizontal=0;startSize=0;swimlaneHead=0;swimlaneBody=0;fillColor=none;collapsible=0;dropTarget=0;points=[[0,0.5],[1,0.5]];portConstraint=eastwest;top=0;left=0;right=0;bottom=1;html=1;" parent="FPBOpDGFrzUPkEcTZleV-53" vertex="1">
          <mxGeometry y="90" width="180" height="30" as="geometry" />
        </mxCell>
        <mxCell id="FPBOpDGFrzUPkEcTZleV-58" value="FK" style="shape=partialRectangle;connectable=0;fillColor=none;top=0;left=0;bottom=0;right=0;fontStyle=1;overflow=hidden;html=1;whiteSpace=wrap;" parent="FPBOpDGFrzUPkEcTZleV-57" vertex="1">
          <mxGeometry width="60" height="30" as="geometry">
            <mxRectangle width="60" height="30" as="alternateBounds" />
          </mxGeometry>
        </mxCell>
        <mxCell id="FPBOpDGFrzUPkEcTZleV-59" value="회원코드" style="shape=partialRectangle;connectable=0;fillColor=none;top=0;left=0;bottom=0;right=0;align=left;spacingLeft=6;fontStyle=5;overflow=hidden;html=1;whiteSpace=wrap;" parent="FPBOpDGFrzUPkEcTZleV-57" vertex="1">
          <mxGeometry x="60" width="120" height="30" as="geometry">
            <mxRectangle width="120" height="30" as="alternateBounds" />
          </mxGeometry>
        </mxCell>
        <mxCell id="FPBOpDGFrzUPkEcTZleV-78" value="콘텐츠 장르" style="shape=table;startSize=30;container=1;collapsible=1;childLayout=tableLayout;fixedRows=1;rowLines=0;fontStyle=1;align=center;resizeLast=1;html=1;whiteSpace=wrap;" parent="1" vertex="1">
          <mxGeometry x="1460" y="1210" width="180" height="120" as="geometry" />
        </mxCell>
        <mxCell id="FPBOpDGFrzUPkEcTZleV-79" value="" style="shape=tableRow;horizontal=0;startSize=0;swimlaneHead=0;swimlaneBody=0;fillColor=none;collapsible=0;dropTarget=0;points=[[0,0.5],[1,0.5]];portConstraint=eastwest;top=0;left=0;right=0;bottom=0;html=1;" parent="FPBOpDGFrzUPkEcTZleV-78" vertex="1">
          <mxGeometry y="30" width="180" height="30" as="geometry" />
        </mxCell>
        <mxCell id="FPBOpDGFrzUPkEcTZleV-80" value="PK" style="shape=partialRectangle;connectable=0;fillColor=none;top=0;left=0;bottom=0;right=0;fontStyle=1;overflow=hidden;html=1;whiteSpace=wrap;" parent="FPBOpDGFrzUPkEcTZleV-79" vertex="1">
          <mxGeometry width="60" height="30" as="geometry">
            <mxRectangle width="60" height="30" as="alternateBounds" />
          </mxGeometry>
        </mxCell>
        <mxCell id="FPBOpDGFrzUPkEcTZleV-81" value="번호" style="shape=partialRectangle;connectable=0;fillColor=none;top=0;left=0;bottom=0;right=0;align=left;spacingLeft=6;fontStyle=5;overflow=hidden;html=1;whiteSpace=wrap;" parent="FPBOpDGFrzUPkEcTZleV-79" vertex="1">
          <mxGeometry x="60" width="120" height="30" as="geometry">
            <mxRectangle width="120" height="30" as="alternateBounds" />
          </mxGeometry>
        </mxCell>
        <mxCell id="FPBOpDGFrzUPkEcTZleV-82" value="" style="shape=tableRow;horizontal=0;startSize=0;swimlaneHead=0;swimlaneBody=0;fillColor=none;collapsible=0;dropTarget=0;points=[[0,0.5],[1,0.5]];portConstraint=eastwest;top=0;left=0;right=0;bottom=0;html=1;" parent="FPBOpDGFrzUPkEcTZleV-78" vertex="1">
          <mxGeometry y="60" width="180" height="30" as="geometry" />
        </mxCell>
        <mxCell id="FPBOpDGFrzUPkEcTZleV-83" value="FK" style="shape=partialRectangle;connectable=0;fillColor=none;top=0;left=0;bottom=0;right=0;fontStyle=1;overflow=hidden;html=1;whiteSpace=wrap;" parent="FPBOpDGFrzUPkEcTZleV-82" vertex="1">
          <mxGeometry width="60" height="30" as="geometry">
            <mxRectangle width="60" height="30" as="alternateBounds" />
          </mxGeometry>
        </mxCell>
        <mxCell id="FPBOpDGFrzUPkEcTZleV-84" value="장르코드" style="shape=partialRectangle;connectable=0;fillColor=none;top=0;left=0;bottom=0;right=0;align=left;spacingLeft=6;fontStyle=5;overflow=hidden;html=1;whiteSpace=wrap;" parent="FPBOpDGFrzUPkEcTZleV-82" vertex="1">
          <mxGeometry x="60" width="120" height="30" as="geometry">
            <mxRectangle width="120" height="30" as="alternateBounds" />
          </mxGeometry>
        </mxCell>
        <mxCell id="FPBOpDGFrzUPkEcTZleV-85" value="" style="shape=tableRow;horizontal=0;startSize=0;swimlaneHead=0;swimlaneBody=0;fillColor=none;collapsible=0;dropTarget=0;points=[[0,0.5],[1,0.5]];portConstraint=eastwest;top=0;left=0;right=0;bottom=1;html=1;" parent="FPBOpDGFrzUPkEcTZleV-78" vertex="1">
          <mxGeometry y="90" width="180" height="30" as="geometry" />
        </mxCell>
        <mxCell id="FPBOpDGFrzUPkEcTZleV-86" value="FK" style="shape=partialRectangle;connectable=0;fillColor=none;top=0;left=0;bottom=0;right=0;fontStyle=1;overflow=hidden;html=1;whiteSpace=wrap;" parent="FPBOpDGFrzUPkEcTZleV-85" vertex="1">
          <mxGeometry width="60" height="30" as="geometry">
            <mxRectangle width="60" height="30" as="alternateBounds" />
          </mxGeometry>
        </mxCell>
        <mxCell id="FPBOpDGFrzUPkEcTZleV-87" value="콘텐츠 코드" style="shape=partialRectangle;connectable=0;fillColor=none;top=0;left=0;bottom=0;right=0;align=left;spacingLeft=6;fontStyle=5;overflow=hidden;html=1;whiteSpace=wrap;" parent="FPBOpDGFrzUPkEcTZleV-85" vertex="1">
          <mxGeometry x="60" width="120" height="30" as="geometry">
            <mxRectangle width="120" height="30" as="alternateBounds" />
          </mxGeometry>
        </mxCell>
        <mxCell id="Djj6nlqTz_gV2Yg1o3kV-8" style="edgeStyle=orthogonalEdgeStyle;rounded=0;orthogonalLoop=1;jettySize=auto;html=1;entryX=0;entryY=0.5;entryDx=0;entryDy=0;" parent="1" source="TikH2mouzczNRT9Rnf8L-20" target="80NQPymvNUorhPCaU9OU-54" edge="1">
          <mxGeometry relative="1" as="geometry" />
        </mxCell>
        <mxCell id="Djj6nlqTz_gV2Yg1o3kV-11" style="edgeStyle=orthogonalEdgeStyle;rounded=0;orthogonalLoop=1;jettySize=auto;html=1;entryX=1;entryY=0.5;entryDx=0;entryDy=0;" parent="1" source="TikH2mouzczNRT9Rnf8L-20" target="80NQPymvNUorhPCaU9OU-4" edge="1">
          <mxGeometry relative="1" as="geometry">
            <Array as="points">
              <mxPoint x="740" y="1199" />
              <mxPoint x="740" y="1595" />
            </Array>
          </mxGeometry>
        </mxCell>
        <mxCell id="Djj6nlqTz_gV2Yg1o3kV-12" style="edgeStyle=orthogonalEdgeStyle;rounded=0;orthogonalLoop=1;jettySize=auto;html=1;entryX=1;entryY=0.5;entryDx=0;entryDy=0;" parent="1" source="RrWgsIVMLDoqZtjO-kZ2-25" target="80NQPymvNUorhPCaU9OU-36" edge="1">
          <mxGeometry relative="1" as="geometry" />
        </mxCell>
        <mxCell id="Djj6nlqTz_gV2Yg1o3kV-13" style="edgeStyle=orthogonalEdgeStyle;rounded=0;orthogonalLoop=1;jettySize=auto;html=1;entryX=1;entryY=0.5;entryDx=0;entryDy=0;endArrow=none;startFill=1;startArrow=classic;" parent="1" source="FPBOpDGFrzUPkEcTZleV-57" target="TikH2mouzczNRT9Rnf8L-20" edge="1">
          <mxGeometry relative="1" as="geometry">
            <Array as="points">
              <mxPoint x="740" y="995" />
              <mxPoint x="740" y="1199" />
            </Array>
          </mxGeometry>
        </mxCell>
        <mxCell id="Djj6nlqTz_gV2Yg1o3kV-16" style="edgeStyle=orthogonalEdgeStyle;rounded=0;orthogonalLoop=1;jettySize=auto;html=1;entryX=1;entryY=0.5;entryDx=0;entryDy=0;" parent="1" source="FPBOpDGFrzUPkEcTZleV-38" target="FPBOpDGFrzUPkEcTZleV-75" edge="1">
          <mxGeometry relative="1" as="geometry" />
        </mxCell>
        <mxCell id="Djj6nlqTz_gV2Yg1o3kV-17" style="edgeStyle=orthogonalEdgeStyle;rounded=0;orthogonalLoop=1;jettySize=auto;html=1;entryX=0;entryY=0.5;entryDx=0;entryDy=0;" parent="1" source="FPBOpDGFrzUPkEcTZleV-38" target="FPBOpDGFrzUPkEcTZleV-82" edge="1">
          <mxGeometry relative="1" as="geometry" />
        </mxCell>
        <mxCell id="Djj6nlqTz_gV2Yg1o3kV-19" style="edgeStyle=orthogonalEdgeStyle;rounded=0;orthogonalLoop=1;jettySize=auto;html=1;entryX=1;entryY=0.5;entryDx=0;entryDy=0;endArrow=none;startFill=1;startArrow=classic;" parent="1" source="LMQ02I74BKlt0l7zJlYX-27" target="LMQ02I74BKlt0l7zJlYX-65" edge="1">
          <mxGeometry relative="1" as="geometry" />
        </mxCell>
        <mxCell id="Djj6nlqTz_gV2Yg1o3kV-20" style="edgeStyle=orthogonalEdgeStyle;rounded=0;orthogonalLoop=1;jettySize=auto;html=1;entryX=1;entryY=0.5;entryDx=0;entryDy=0;endArrow=none;startFill=1;startArrow=classic;" parent="1" source="LMQ02I74BKlt0l7zJlYX-65" target="LMQ02I74BKlt0l7zJlYX-84" edge="1">
          <mxGeometry relative="1" as="geometry" />
        </mxCell>
        <mxCell id="Djj6nlqTz_gV2Yg1o3kV-21" style="edgeStyle=orthogonalEdgeStyle;rounded=0;orthogonalLoop=1;jettySize=auto;html=1;entryX=1;entryY=0.5;entryDx=0;entryDy=0;" parent="1" source="LMQ02I74BKlt0l7zJlYX-84" target="RrWgsIVMLDoqZtjO-kZ2-28" edge="1">
          <mxGeometry relative="1" as="geometry">
            <Array as="points">
              <mxPoint x="740" y="1565" />
              <mxPoint x="740" y="1625" />
            </Array>
          </mxGeometry>
        </mxCell>
        <mxCell id="zMgDFHa-qQYp7SoUZ2gR-1" value="이미지" style="shape=table;startSize=30;container=1;collapsible=1;childLayout=tableLayout;fixedRows=1;rowLines=0;fontStyle=1;align=center;resizeLast=1;html=1;whiteSpace=wrap;" vertex="1" parent="1">
          <mxGeometry x="1750" y="1110" width="180" height="150" as="geometry" />
        </mxCell>
        <mxCell id="zMgDFHa-qQYp7SoUZ2gR-2" value="" style="shape=tableRow;horizontal=0;startSize=0;swimlaneHead=0;swimlaneBody=0;fillColor=none;collapsible=0;dropTarget=0;points=[[0,0.5],[1,0.5]];portConstraint=eastwest;top=0;left=0;right=0;bottom=0;html=1;" vertex="1" parent="zMgDFHa-qQYp7SoUZ2gR-1">
          <mxGeometry y="30" width="180" height="30" as="geometry" />
        </mxCell>
        <mxCell id="zMgDFHa-qQYp7SoUZ2gR-3" value="PK" style="shape=partialRectangle;connectable=0;fillColor=none;top=0;left=0;bottom=0;right=0;fontStyle=1;overflow=hidden;html=1;whiteSpace=wrap;" vertex="1" parent="zMgDFHa-qQYp7SoUZ2gR-2">
          <mxGeometry width="60" height="30" as="geometry">
            <mxRectangle width="60" height="30" as="alternateBounds" />
          </mxGeometry>
        </mxCell>
        <mxCell id="zMgDFHa-qQYp7SoUZ2gR-4" value="이미지 번호" style="shape=partialRectangle;connectable=0;fillColor=none;top=0;left=0;bottom=0;right=0;align=left;spacingLeft=6;fontStyle=5;overflow=hidden;html=1;whiteSpace=wrap;" vertex="1" parent="zMgDFHa-qQYp7SoUZ2gR-2">
          <mxGeometry x="60" width="120" height="30" as="geometry">
            <mxRectangle width="120" height="30" as="alternateBounds" />
          </mxGeometry>
        </mxCell>
        <mxCell id="zMgDFHa-qQYp7SoUZ2gR-5" value="" style="shape=tableRow;horizontal=0;startSize=0;swimlaneHead=0;swimlaneBody=0;fillColor=none;collapsible=0;dropTarget=0;points=[[0,0.5],[1,0.5]];portConstraint=eastwest;top=0;left=0;right=0;bottom=1;html=1;" vertex="1" parent="zMgDFHa-qQYp7SoUZ2gR-1">
          <mxGeometry y="60" width="180" height="30" as="geometry" />
        </mxCell>
        <mxCell id="zMgDFHa-qQYp7SoUZ2gR-6" value="FK" style="shape=partialRectangle;connectable=0;fillColor=none;top=0;left=0;bottom=0;right=0;fontStyle=1;overflow=hidden;html=1;whiteSpace=wrap;" vertex="1" parent="zMgDFHa-qQYp7SoUZ2gR-5">
          <mxGeometry width="60" height="30" as="geometry">
            <mxRectangle width="60" height="30" as="alternateBounds" />
          </mxGeometry>
        </mxCell>
        <mxCell id="zMgDFHa-qQYp7SoUZ2gR-7" value="콘텐츠 코드" style="shape=partialRectangle;connectable=0;fillColor=none;top=0;left=0;bottom=0;right=0;align=left;spacingLeft=6;fontStyle=5;overflow=hidden;html=1;whiteSpace=wrap;" vertex="1" parent="zMgDFHa-qQYp7SoUZ2gR-5">
          <mxGeometry x="60" width="120" height="30" as="geometry">
            <mxRectangle width="120" height="30" as="alternateBounds" />
          </mxGeometry>
        </mxCell>
        <mxCell id="zMgDFHa-qQYp7SoUZ2gR-8" value="" style="shape=tableRow;horizontal=0;startSize=0;swimlaneHead=0;swimlaneBody=0;fillColor=none;collapsible=0;dropTarget=0;points=[[0,0.5],[1,0.5]];portConstraint=eastwest;top=0;left=0;right=0;bottom=0;html=1;" vertex="1" parent="zMgDFHa-qQYp7SoUZ2gR-1">
          <mxGeometry y="90" width="180" height="30" as="geometry" />
        </mxCell>
        <mxCell id="zMgDFHa-qQYp7SoUZ2gR-9" value="" style="shape=partialRectangle;connectable=0;fillColor=none;top=0;left=0;bottom=0;right=0;editable=1;overflow=hidden;html=1;whiteSpace=wrap;" vertex="1" parent="zMgDFHa-qQYp7SoUZ2gR-8">
          <mxGeometry width="60" height="30" as="geometry">
            <mxRectangle width="60" height="30" as="alternateBounds" />
          </mxGeometry>
        </mxCell>
        <mxCell id="zMgDFHa-qQYp7SoUZ2gR-10" value="파일이름" style="shape=partialRectangle;connectable=0;fillColor=none;top=0;left=0;bottom=0;right=0;align=left;spacingLeft=6;overflow=hidden;html=1;whiteSpace=wrap;" vertex="1" parent="zMgDFHa-qQYp7SoUZ2gR-8">
          <mxGeometry x="60" width="120" height="30" as="geometry">
            <mxRectangle width="120" height="30" as="alternateBounds" />
          </mxGeometry>
        </mxCell>
        <mxCell id="zMgDFHa-qQYp7SoUZ2gR-11" value="" style="shape=tableRow;horizontal=0;startSize=0;swimlaneHead=0;swimlaneBody=0;fillColor=none;collapsible=0;dropTarget=0;points=[[0,0.5],[1,0.5]];portConstraint=eastwest;top=0;left=0;right=0;bottom=0;html=1;" vertex="1" parent="zMgDFHa-qQYp7SoUZ2gR-1">
          <mxGeometry y="120" width="180" height="30" as="geometry" />
        </mxCell>
        <mxCell id="zMgDFHa-qQYp7SoUZ2gR-12" value="" style="shape=partialRectangle;connectable=0;fillColor=none;top=0;left=0;bottom=0;right=0;editable=1;overflow=hidden;html=1;whiteSpace=wrap;" vertex="1" parent="zMgDFHa-qQYp7SoUZ2gR-11">
          <mxGeometry width="60" height="30" as="geometry">
            <mxRectangle width="60" height="30" as="alternateBounds" />
          </mxGeometry>
        </mxCell>
        <mxCell id="zMgDFHa-qQYp7SoUZ2gR-13" value="파일 경로" style="shape=partialRectangle;connectable=0;fillColor=none;top=0;left=0;bottom=0;right=0;align=left;spacingLeft=6;overflow=hidden;html=1;whiteSpace=wrap;" vertex="1" parent="zMgDFHa-qQYp7SoUZ2gR-11">
          <mxGeometry x="60" width="120" height="30" as="geometry">
            <mxRectangle width="120" height="30" as="alternateBounds" />
          </mxGeometry>
        </mxCell>
        <mxCell id="zMgDFHa-qQYp7SoUZ2gR-19" style="edgeStyle=orthogonalEdgeStyle;rounded=0;orthogonalLoop=1;jettySize=auto;html=1;entryX=0;entryY=0.5;entryDx=0;entryDy=0;" edge="1" parent="1" source="LMQ02I74BKlt0l7zJlYX-27" target="zMgDFHa-qQYp7SoUZ2gR-5">
          <mxGeometry relative="1" as="geometry" />
        </mxCell>
        <mxCell id="zMgDFHa-qQYp7SoUZ2gR-20" style="edgeStyle=orthogonalEdgeStyle;rounded=0;orthogonalLoop=1;jettySize=auto;html=1;entryX=0;entryY=0.5;entryDx=0;entryDy=0;" edge="1" parent="1" source="csWBge49t50IC-i_Ylmp-11" target="zMgDFHa-qQYp7SoUZ2gR-5">
          <mxGeometry relative="1" as="geometry" />
        </mxCell>
        <mxCell id="zMgDFHa-qQYp7SoUZ2gR-21" style="edgeStyle=orthogonalEdgeStyle;rounded=0;orthogonalLoop=1;jettySize=auto;html=1;entryX=1;entryY=0.5;entryDx=0;entryDy=0;" edge="1" parent="1" source="csWBge49t50IC-i_Ylmp-11" target="EbYyHTh1wWm7esoZAWgI-1">
          <mxGeometry relative="1" as="geometry" />
        </mxCell>
        <mxCell id="NRUFi1nL8cUDUI56cWEX-1" style="edgeStyle=orthogonalEdgeStyle;rounded=0;orthogonalLoop=1;jettySize=auto;html=1;entryX=1;entryY=0.5;entryDx=0;entryDy=0;" edge="1" parent="1">
          <mxGeometry relative="1" as="geometry">
            <mxPoint x="1644" y="1315" as="targetPoint" />
            <mxPoint x="1644" y="1565.0588235294117" as="sourcePoint" />
            <Array as="points">
              <mxPoint x="1694" y="1565" />
              <mxPoint x="1694" y="1315" />
            </Array>
          </mxGeometry>
        </mxCell>
      </root>
    </mxGraphModel>
  </diagram>
</mxfile>
